<svg xmlns="http://www.w3.org/2000/svg" xmlns:xlink="http://www.w3.org/1999/xlink" xml:space="preserve" width="64" height="16"><defs><linearGradient id="a"><stop offset="0" style="stop-color:green;stop-opacity:1"/><stop offset="1" style="stop-color:teal;stop-opacity:1"/></linearGradient><linearGradient xlink:href="#a" id="b" x1="0" x2="60" y1="7.5" y2="7.5" gradientTransform="matrix(.98435 0 0 .98435 .468 -.007)" gradientUnits="userSpaceOnUse"/></defs><path d="M4.302 14.936q-.127 0-.191-.05-.051-.052-.051-.14V2.553q-.255.752-.624 1.338-.357.586-.88 1.07-.522.471-1.248.879-.089.038-.153.013-.05-.026-.114-.128-.051-.102-.038-.178.025-.077.114-.102.841-.459 1.414-1.057.573-.612.93-1.414.357-.803.56-1.797.026-.076.103-.114.089-.051.19-.051.103 0 .166.05.064.039.064.14v3.351q.255-.879.662-1.541.408-.675.943-1.109.548-.445 1.185-.675Q7.97 1 8.684 1q1.006 0 1.707.408.713.407 1.096 1.146.382.739.382 1.72 0 .675-.179 1.274-.178.586-.535 1.083-.356.484-.866.879-.497.382-1.108.65-.612.267-1.35.42.101.19.242.42t.33.548q.192.306.46.713.267.408.61.943.549.866.982 1.465.433.586.777.955.357.37.637.573.293.192.56.268.28.064.574.064.101 0 .14.076.05.064.05.153 0 .076-.05.14-.051.077-.166.077-.522 0-.968-.192-.433-.19-.866-.586-.433-.407-.93-1.057-.484-.65-1.083-1.605-.306-.459-.548-.828-.242-.382-.446-.713-.19-.332-.382-.625-.178-.293-.344-.586-.306.026-.586-.038-.267-.076-.446-.216-.165-.153-.165-.332 0-.203.127-.318.128-.115.344-.115.242 0 .484.115t.395.331q.662-.102 1.236-.344.586-.242 1.044-.586.472-.356.803-.802.344-.446.522-.981.191-.535.191-1.147 0-.879-.318-1.528-.319-.663-.93-1.02-.612-.356-1.478-.356-.7 0-1.325.267-.611.268-1.12.777-.498.51-.88 1.262-.37.738-.573 1.707-.191.955-.191 2.114v7.172q0 .09-.051.14t-.191.051m8.739.039q-.115 0-.179-.077-.063-.064-.063-.14 0-.09.063-.153.064-.076.179-.076.713 0 1.414-.268.713-.28 1.312-.713.064-.038.127-.013.064.026.115.09.05.063.064.14.013.076-.051.114-.446.318-.956.573-.497.242-1.019.382-.51.14-1.006.14m2.764-1.465q.293-.217.56-.459t.497-.522q.319-.37.535-.765.23-.395.357-.79.128-.394.128-.777 0-.79-.37-1.197-.357-.42-1.019-.42-.115 0-.178-.064-.051-.064-.039-.153.013-.09.077-.153.076-.063.191-.063.65 0 1.045.292.407.28.598.752.191.459.191.994 0 .433-.152.879-.14.446-.408.891-.255.434-.612.841-.242.28-.535.548-.293.267-.611.51zm2.153 1.465q-.573 0-1.083-.217t-.93-.612-.726-.93q-.318-.547-.484-1.184-.166-.65-.166-1.363 0-.548.153-1.007.14-.47.408-.802.267-.344.624-.522.357-.192.79-.192.115 0 .178.064.051.064.038.153-.012.09-.076.153-.076.064-.191.064-.242 0-.459.102-.229.101-.395.293-.178.178-.305.433-.128.254-.191.573-.077.306-.077.662 0 .892.242 1.618.242.714.663 1.223.407.51.93.777.522.268 1.082.268.497 0 .918-.204.42-.217.751-.675.344-.459.612-1.172.28-.726.484-1.733.153-.713.305-1.197.166-.497.357-.79.204-.293.459-.42.267-.14.611-.14.115 0 .166.063.063.064.05.153 0 .09-.076.153-.063.064-.178.064-.191 0-.357.114-.165.102-.318.344-.14.242-.28.637-.128.382-.242.943-.255 1.172-.574 2-.305.815-.7 1.325-.383.51-.88.751-.496.23-1.133.23m7.554.025q-.459 0-.84-.178-.383-.166-.676-.497-.28-.344-.446-.854-.153-.51-.153-1.172V9.97q0-.701-.254-1.02-.242-.318-.688-.318-.115 0-.179-.064-.05-.064-.05-.153.012-.09.076-.153.064-.064.178-.064.319 0 .574.102t.433.306.267.535q.102.319.102.764v2.306q0 .573.102 1.02.115.432.331.738.23.293.548.446.331.153.752.153.356 0 .675-.14.33-.14.611-.395t.484-.624q.204-.37.319-.816.114-.458.114-.993 0-.79-.14-1.35-.127-.574-.306-.981-.356-.14-.522-.357-.165-.217-.165-.408 0-.14.089-.242.089-.114.242-.114.255 0 .484.343.23.344.395.88.178.534.28 1.108.102.573.102 1.032 0 .535-.115 1.057-.102.51-.318.955-.217.433-.548.765-.318.33-.764.522-.433.191-.994.191m5.516-3.185q-.764-.19-1.427-.573-.662-.395-1.248-.943t-1.108-1.197q-.077-.102-.026-.191t.153-.115.178.09q.523.662 1.083 1.184t1.172.866q.624.332 1.287.472.102.025.127.102.026.063.013.14-.013.076-.076.127-.051.051-.128.038zm.14-.344q.752.115 1.287.013t.879-.344q.344-.255.497-.586.165-.344.165-.7 0-.6-.331-.93-.331-.344-.854-.344-.14 0-.203-.064-.051-.064-.039-.153.026-.09.102-.153.077-.064.204-.064.408 0 .714.14.305.14.496.37.204.23.306.535.102.293.102.624 0 .42-.178.841-.179.408-.574.739-.382.318-1.006.471-.624.14-1.503.013zm3.376 3.504q-.624 0-1.185-.217-.56-.217-1.006-.612-.459-.394-.79-.93-.344-.547-.522-1.184-.179-.65-.179-1.363 0-.433.102-.816.09-.394.268-.7.165-.319.42-.535.242-.23.548-.344.293-.128.637-.128.115 0 .178.064.051.064.038.153-.012.09-.076.153-.076.064-.191.064-.306 0-.56.152-.268.153-.46.434-.19.28-.292.662-.115.37-.115.815 0 .892.268 1.618.254.714.713 1.223.446.51 1.02.777.572.268 1.184.268.892 0 1.516-.637.637-.637.968-1.873.331-1.248.331-3.057 0-.115.064-.166.064-.064.153-.05.089 0 .153.063.063.064.063.178 0 2.026-.382 3.35t-1.108 1.988q-.726.65-1.758.65m7.809 0q-.331 0-.624-.077-.28-.076-.51-.242-.216-.178-.344-.446-.115-.28-.115-.662 0-.37.026-.816.038-.458.064-.942.038-.497.063-.968.039-.484.039-.905 0-.624-.23-.853-.229-.242-.662-.242-.306 0-.7.127-.383.115-.778.242-.395.115-.764.115-.191 0-.37-.191-.165-.191-.28-.446-.102-.268-.102-.472 0-.127.038-.216.039-.102.115-.153.077-.064.178-.064.192 0 .28.217.103.204.103.522v.408q.267.025.535-.038.28-.077.573-.191.293-.115.599-.204.305-.09.637-.09.42 0 .7.166.293.153.433.497.153.344.153.879 0 .446-.038.917-.026.471-.064.943-.025.458-.063.879-.026.407-.026.751 0 .574.28.841.293.268.854.268.114 0 .165.076.064.064.064.153 0 .076-.064.14-.05.077-.165.077m-.026 0q-.114 0-.178-.077-.064-.064-.064-.14 0-.09.064-.153.064-.076.178-.076.497 0 .905-.153.407-.153.726-.408.318-.255.548-.56.229-.319.344-.637.038-.115.127-.115.102 0 .166.09.063.076.025.19-.115.331-.357.688-.229.357-.586.663-.344.305-.828.496-.47.191-1.07.191m4.179 0q-.51 0-.841-.14t-.51-.396q-.165-.267-.242-.624-.063-.356-.063-.79V8.39q0-.09.05-.14.052-.052.166-.052.128 0 .179.051.063.051.063.14v4.637q0 .778.23 1.147.229.357.968.357.076 0 .114.076.051.064.051.153 0 .076-.038.14-.038.077-.127.077m-1.44-9.007q-.242 0-.356-.127-.115-.14-.115-.42 0-.268.115-.396.114-.14.356-.14t.357.14q.127.128.127.395 0 .28-.127.42-.115.128-.357.128m1.452 9.007q-.114 0-.178-.077-.064-.064-.064-.14 0-.09.064-.153.064-.076.178-.076.714 0 1.414-.268.714-.28 1.313-.713.063-.038.127-.013t.115.09.063.14-.05.114q-.447.318-.956.573-.497.242-1.02.382-.509.14-1.006.14m2.765-1.465q.293-.217.56-.459t.497-.522q.319-.37.535-.765.23-.395.357-.79.127-.394.127-.777 0-.79-.37-1.197-.356-.42-1.018-.42-.115 0-.179-.064-.05-.064-.038-.153.013-.09.077-.153.076-.063.19-.063.65 0 1.045.292.408.28.599.752.191.459.191.994 0 .433-.153.879-.14.446-.407.891-.255.434-.612.841-.242.28-.535.548-.293.267-.611.51zm2.19 1.465q-.534 0-1.044-.217t-.93-.612q-.433-.394-.751-.93-.331-.547-.51-1.184-.19-.65-.19-1.363 0-.433.101-.815.09-.395.268-.701.165-.319.42-.535.242-.23.548-.344.293-.128.637-.128.114 0 .178.064.05.064.038.153-.013.09-.076.153-.077.064-.191.064-.306 0-.56.152-.268.153-.46.434-.19.28-.292.662-.115.37-.115.815 0 .892.267 1.618.255.714.688 1.223t.956.777q.51.268 1.019.268.675 0 1.26-.357.587-.357 1.084-1.07t.891-1.809.701-2.56q.026-.115.115-.128.102-.025.178.051.09.064.051.255-.267 1.503-.688 2.65-.407 1.133-.955 1.898-.535.751-1.198 1.133-.662.383-1.44.383m5.173.025q-.51 0-.994-.14-.471-.14-.84-.395-.077-.064-.09-.14-.013-.09.064-.179.064-.101.14-.114.09-.013.191.05.37.256.739.37.37.115.84.115.714 0 1.122-.459.42-.458.42-1.235 0-.586-.204-.956-.203-.382-.535-.624-.318-.255-.688-.471-.369-.217-.7-.484-.319-.28-.522-.688t-.204-1.058q0-.254.063-.535.077-.293.344-.293.115 0 .166.077.064.063.064.19 0 .116-.077.358-.064.229-.19.522.025.42.241.726.23.293.56.535.345.23.714.471.382.23.713.523.332.293.535.7.217.408.217.994 0 .968-.573 1.554T56.646 15" aria-label="Reveries" style="fill:url(#b);stroke-width:.984348"/></svg>