<svg xmlns="http://www.w3.org/2000/svg" width="48" height="48">
  <path
    d="M40.92.6q-.24 0-.592.064-.352.047-.752.207-.4.144-.8.432-.384.272-.704.736a4 4 0 0 0-.527 1.104q-.192.656-.193 1.568 0 1.313.32 2.225.32.911.832 1.47.511.56 1.137.817.639.24 1.279.24.912 0 1.615-.224.704-.24 1.233-.608a5 5 0 0 1-.127.785q-.096.4-.32.704a1.5 1.5 0 0 1-.561.511q-.336.192-.864.192a6.4 6.4 0 0 1-1.072-.096q-.544-.08-1.297-.447-.383-.176-.687-.176-.353 0-.64.176-.272.176-.417.447a1.16 1.16 0 0 0-.127.61q.016.334.24.638.464.64 1.391 1.041.929.4 2.129.4 1.215 0 2.031-.209.833-.207 1.362-.591.527-.369.798-.897a3.6 3.6 0 0 0 .4-1.119q.13-.608.145-1.297.016-.688.016-1.408v-1.6q0-.512.031-.992l.065-.992q.047-.511.08-1.055.032-.544.033-1.168 0-.225-.064-.465a1.1 1.1 0 0 0-.21-.464 1.1 1.1 0 0 0-.462-.336q-.305-.128-.786-.127-.704.015-1.023.271-.304.255-.416.592a3.6 3.6 0 0 0-1.088-.688Q41.72.601 40.92.6m.816 2.367q.48 0 .864.176.4.16.671.45.272.287.417.655.16.368.175.768.017.528-.175.943a2 2 0 0 1-.512.672q-.304.272-.688.416a2.4 2.4 0 0 1-.752.13q-.367-.002-.705-.114a1.5 1.5 0 0 1-.592-.367 2 2 0 0 1-.4-.672q-.143-.416-.143-1.008 0-.417.096-.785.113-.367.336-.639.225-.288.576-.449a1.84 1.84 0 0 1 .832-.176m-22.08 7.149a5 5 0 0 0-1.84.336 4.4 4.4 0 0 0-1.472.945q-.624.608-.977 1.455-.351.832-.351 1.856 0 1.136.336 1.953.352.8.945 1.328.608.512 1.424.752t1.775.24q.48 0 .977-.097a7 7 0 0 0 .974-.256q.48-.177.881-.416a3 3 0 0 0 .656-.543q.287-.336.287-.721a1.3 1.3 0 0 0-.175-.719 1.56 1.56 0 0 0-.496-.56 1.11 1.11 0 0 0-1.393.047l-.414.353a3 3 0 0 1-.37.287 2 2 0 0 1-.4.192q-.208.064-.511.064-.544 0-.912-.16a1.9 1.9 0 0 1-.608-.447 1.8 1.8 0 0 1-.32-.657 3 3 0 0 1-.096-.783q0-1.073.56-1.697.56-.623 1.536-.623.369 0 .8.096.432.08 1.04.351.24.112.496.111a.77.77 0 0 0 .592-.238q.224-.24.271-.56a1.26 1.26 0 0 0-.078-.657.88.88 0 0 0-.465-.496 14 14 0 0 0-.576-.271 4 4 0 0 0-.607-.24 4.8 4.8 0 0 0-1.488-.225M6.936 10.153q-.48.016-.864.096a2.6 2.6 0 0 0-.96.416 3 3 0 0 0-.688.64q-.048-.367-.385-.687-.32-.32-1.12-.32-.462 0-.767.127a1.3 1.3 0 0 0-.465.289q-.159.175-.222.383a1.4 1.4 0 0 0-.065.4q0 .287.047.608.048.32.114.671.063.352.11.737.05.367.05.736v.688q0 .367-.05.736-.047.368-.11.72-.065.353-.114.673a4 4 0 0 0-.047.607q0 .192.065.4.064.209.222.4.177.176.465.288.304.113.768.113.465 0 .752-.113.288-.112.465-.287a.96.96 0 0 0 .24-.37q.063-.207.062-.398a5.8 5.8 0 0 0-.16-1.346 6.3 6.3 0 0 1-.16-1.423v-.928q0-.112.018-.24.031-.4.287-.688.24-.272.465-.4.24-.144.447-.192t.385-.03q.192 0 .336.03.736.16.736 2.352v.096q0 .367-.049.736-.048.368-.111.72-.065.353-.113.673a4 4 0 0 0-.047.607q0 .193.047.4a1 1 0 0 0 .209.4q.16.176.431.288.288.113.752.113.465 0 .736-.113a1 1 0 0 0 .432-.287.86.86 0 0 0 .207-.37 1.4 1.4 0 0 0 .065-.398 5.8 5.8 0 0 0-.16-1.346 6.3 6.3 0 0 1-.16-1.423v-.096q0-.319.032-.623l.096-.625q.032-.192.111-.367a.8.8 0 0 1 .21-.305q.447-.416.831-.447a1.9 1.9 0 0 1 .657.015q.735.16.734 2.352v.096q0 .367-.047.736-.047.368-.111.72-.065.353-.113.673a4 4 0 0 0-.047.607q0 .193.062.4.065.209.225.4.176.176.465.288.303.113.767.113t.752-.113q.288-.112.463-.287a.96.96 0 0 0 .24-.37 1.4 1.4 0 0 0 .065-.398 5.8 5.8 0 0 0-.16-1.346 6.3 6.3 0 0 1-.16-1.423v-.096q0-.752.16-1.424.16-.688.16-1.344 0-.72-.367-1.119a2.15 2.15 0 0 0-.912-.61 3.3 3.3 0 0 0-1.122-.19q-.59 0-1.039.095a2.6 2.6 0 0 0-1.023.45 3.5 3.5 0 0 0-.705.718 1.46 1.46 0 0 0-.543-.752 2.15 2.15 0 0 0-.832-.4 3 3 0 0 0-.945-.112m0-9.551q-.48.015-.864.096a2.6 2.6 0 0 0-.96.416 3 3 0 0 0-.688.64q-.048-.367-.385-.687-.32-.32-1.12-.32-.462-.001-.767.126a1.3 1.3 0 0 0-.464.29q-.16.174-.223.382a1.4 1.4 0 0 0-.065.4q0 .289.047.608.048.32.114.672.063.352.11.736.05.368.05.737v.687q0 .368-.05.736-.047.369-.11.721-.065.353-.114.672a4 4 0 0 0-.047.607q0 .193.065.4.063.21.223.401.176.176.464.287.304.113.768.114.465-.001.752-.114.288-.111.465-.287a.96.96 0 0 0 .24-.369q.063-.207.062-.398a5.8 5.8 0 0 0-.16-1.346 6.3 6.3 0 0 1-.16-1.424v-.927q0-.113.018-.241.031-.4.287-.687.24-.273.465-.4.24-.145.447-.192t.385-.032q.192 0 .336.032.736.16.736 2.351v.096q0 .368-.049.736-.048.369-.111.721a22 22 0 0 0-.113.672 4 4 0 0 0-.047.607q0 .193.047.4a1 1 0 0 0 .209.401q.16.176.431.287.288.113.752.114.465-.001.736-.114a1 1 0 0 0 .432-.287.86.86 0 0 0 .207-.369 1.4 1.4 0 0 0 .065-.398 5.8 5.8 0 0 0-.16-1.346 6.3 6.3 0 0 1-.16-1.424v-.096q0-.319.032-.623l.096-.625q.032-.192.111-.367a.8.8 0 0 1 .21-.305q.447-.416.831-.447a1.9 1.9 0 0 1 .657.016q.735.16.734 2.351v.096q0 .368-.047.736-.047.369-.111.721-.065.353-.113.672a4 4 0 0 0-.047.607q0 .192.062.4.065.21.225.401.176.176.465.287.303.113.767.114.464-.002.752-.114.288-.111.463-.287a.96.96 0 0 0 .24-.369 1.4 1.4 0 0 0 .065-.398 5.8 5.8 0 0 0-.16-1.346 6.3 6.3 0 0 1-.16-1.424v-.096q0-.752.16-1.424.16-.687.16-1.343 0-.72-.367-1.12a2.15 2.15 0 0 0-.912-.609 3.3 3.3 0 0 0-1.122-.191q-.59 0-1.039.096a2.6 2.6 0 0 0-1.023.449 3.5 3.5 0 0 0-.705.718 1.46 1.46 0 0 0-.543-.751 2.15 2.15 0 0 0-.832-.4 3 3 0 0 0-.945-.112M35.225-3q-.497 0-.801.127a1.3 1.3 0 0 0-.463.336 1.1 1.1 0 0 0-.225.433q-.049.224-.049.448 0 .56.05 1.088.047.528.11 1.056.065.512.114 1.024.047.495.047 1.008v1.279q0 .512-.047 1.008-.048.48-.113.976-.064.497-.112 1.041-.049.528-.049 1.15 0 .225.05.465.063.224.224.432.175.192.463.32.304.13.8.13.48-.002.784-.114.304-.128.465-.32a.9.9 0 0 0 .222-.416q.065-.24.065-.463 0-.624-.047-1.168-.048-.544-.113-1.041a40 40 0 0 1-.112-.992q-.048-.497-.049-1.008v-1.28q0-.511.05-.992.047-.495.11-.992.065-.511.114-1.055.047-.543.047-1.167 0-.225-.065-.45a.9.9 0 0 0-.222-.431 1.1 1.1 0 0 0-.465-.305Q35.704-3 35.225-3M25.4-3q-.48 0-.785.127a1.07 1.07 0 0 0-.463.305 1.1 1.1 0 0 0-.224.431q-.048.225-.047.45 0 .623.047 1.167t.111 1.055q.065.496.113.992.048.48.047.993v1.279q0 .512-.047 1.008-.048.48-.113.992-.064.496-.111 1.04-.048.545-.047 1.169 0 .224.047.463.064.224.224.416t.463.32q.305.113.785.113.753-.016 1.073-.273.319-.272.398-.623.496.465 1.152.767.673.289 1.504.29.417 0 1.026-.16a3.05 3.05 0 0 0 1.168-.626q.576-.463.974-1.295.4-.832.4-2.193 0-1.263-.302-2.127-.289-.88-.785-1.424A2.9 2.9 0 0 0 30.87.871a3.6 3.6 0 0 0-1.344-.256q-.831 0-1.488.225-.656.208-1.168.576-.24.16-.207-.096l.16-1.441q.096-.72.096-1.535 0-.224-.065-.448a.96.96 0 0 0-.207-.433 1.1 1.1 0 0 0-.464-.336Q25.896-3 25.4-3m3.313 5.744q.864-.001 1.344.559.495.56.496 1.761 0 .416-.08.784a1.7 1.7 0 0 1-.29.656q-.207.271-.576.447-.35.16-.894.16-.976 0-1.553-.496-.576-.511-.607-1.55-.016-.53.176-.961.207-.432.527-.737.32-.303.705-.463t.752-.16M19.656.6a5 5 0 0 0-1.84.336 4.4 4.4 0 0 0-1.472.945q-.624.608-.977 1.455-.351.832-.351 1.856 0 1.136.336 1.953.352.8.945 1.328.608.512 1.424.752t1.775.24q.48 0 .977-.097a7 7 0 0 0 .974-.256q.48-.177.881-.416a3 3 0 0 0 .656-.543q.287-.337.287-.721a1.3 1.3 0 0 0-.175-.719 1.56 1.56 0 0 0-.496-.56 1.11 1.11 0 0 0-1.393.047l-.414.353a3 3 0 0 1-.37.287 2 2 0 0 1-.4.192q-.208.064-.511.064-.544 0-.912-.16a1.9 1.9 0 0 1-.608-.447 1.8 1.8 0 0 1-.32-.657 3 3 0 0 1-.096-.783q0-1.072.56-1.697.56-.623 1.536-.623.369 0 .8.096.432.08 1.04.351.24.112.496.111a.77.77 0 0 0 .592-.238q.224-.24.271-.56a1.26 1.26 0 0 0-.078-.657.88.88 0 0 0-.465-.496 14 14 0 0 0-.576-.271 4 4 0 0 0-.607-.24A4.8 4.8 0 0 0 19.657.6"
    style="fill:#b0deff"/>
  <path
    d="M40.92 14.144q-.24 0-.592.064-.352.047-.752.207-.4.144-.8.432-.384.272-.704.736a4 4 0 0 0-.527 1.104q-.192.656-.193 1.568 0 1.313.32 2.225.32.911.832 1.47.511.56 1.137.817.639.24 1.279.24.912 0 1.615-.224.704-.24 1.233-.608a5 5 0 0 1-.127.785q-.096.4-.32.703a1.5 1.5 0 0 1-.561.512q-.336.192-.864.192a6.4 6.4 0 0 1-1.072-.096q-.544-.08-1.297-.447-.383-.176-.687-.176-.353 0-.64.176-.272.175-.417.447a1.16 1.16 0 0 0-.127.61q.016.334.24.638.464.64 1.391 1.04.929.401 2.129.401 1.215 0 2.031-.209.833-.208 1.362-.592.527-.368.798-.896a3.6 3.6 0 0 0 .4-1.12q.13-.607.145-1.296.016-.688.016-1.408v-1.6q0-.512.031-.992l.065-.992q.047-.512.08-1.055.032-.544.033-1.168 0-.225-.064-.465a1.1 1.1 0 0 0-.21-.465 1.1 1.1 0 0 0-.462-.335q-.305-.128-.786-.127-.704.015-1.023.271-.304.255-.416.592a3.6 3.6 0 0 0-1.088-.688q-.608-.271-1.408-.271m.816 2.367q.48 0 .864.176.4.16.671.449.272.288.417.656.16.368.175.768.017.528-.175.943a2 2 0 0 1-.512.672q-.304.272-.688.416a2.4 2.4 0 0 1-.752.129q-.367-.001-.705-.113a1.5 1.5 0 0 1-.592-.367 2 2 0 0 1-.4-.672q-.143-.416-.143-1.008 0-.416.096-.785.113-.368.336-.639.225-.289.576-.45a1.84 1.84 0 0 1 .832-.175m-22.08 12.637a5 5 0 0 0-1.84.336 4.4 4.4 0 0 0-1.472.945q-.624.608-.977 1.455-.351.832-.351 1.856 0 1.136.336 1.953.352.8.945 1.328.608.512 1.424.752t1.775.24q.48-.001.977-.098a7 7 0 0 0 .974-.255q.48-.177.881-.416a3 3 0 0 0 .656-.543q.287-.337.287-.721a1.3 1.3 0 0 0-.175-.719 1.56 1.56 0 0 0-.496-.56 1.11 1.11 0 0 0-1.393.046q-.224.193-.414.354a3 3 0 0 1-.37.287 2 2 0 0 1-.4.191q-.208.065-.511.065-.544 0-.912-.16a1.9 1.9 0 0 1-.608-.447 1.8 1.8 0 0 1-.32-.657 3 3 0 0 1-.096-.783q0-1.073.56-1.697.56-.623 1.536-.623.369 0 .8.095.432.08 1.04.352.24.112.496.111a.77.77 0 0 0 .592-.238q.224-.24.271-.56a1.26 1.26 0 0 0-.078-.657.88.88 0 0 0-.465-.496 14 14 0 0 0-.576-.271 4 4 0 0 0-.607-.24 4.8 4.8 0 0 0-1.488-.225M6.936 19.705q-.48.015-.864.096a2.6 2.6 0 0 0-.96.416 3 3 0 0 0-.688.64q-.048-.367-.385-.687-.32-.32-1.12-.32-.462-.001-.767.127a1.3 1.3 0 0 0-.464.289q-.16.175-.223.382a1.4 1.4 0 0 0-.065.4q0 .289.047.608.048.32.114.672.063.352.11.736.05.369.05.737v.687q0 .369-.05.737-.047.368-.11.72-.065.353-.114.672a4 4 0 0 0-.047.608q0 .192.065.4.064.208.223.4.176.176.464.287.304.113.768.114.465 0 .752-.114.288-.111.465-.287a.96.96 0 0 0 .24-.369q.063-.206.062-.398a5.8 5.8 0 0 0-.16-1.346 6.3 6.3 0 0 1-.16-1.424v-.927q0-.113.018-.24.031-.4.287-.688.24-.273.465-.4.24-.145.447-.192t.385-.031q.192 0 .336.031.736.16.736 2.352v.095q0 .369-.049.737-.048.368-.111.72-.065.353-.113.672a4 4 0 0 0-.047.608q0 .192.047.4a1 1 0 0 0 .209.4q.16.176.431.287.288.113.752.114.465 0 .736-.114a1 1 0 0 0 .432-.287.86.86 0 0 0 .207-.369 1.4 1.4 0 0 0 .065-.398 5.8 5.8 0 0 0-.16-1.346 6.3 6.3 0 0 1-.16-1.424v-.095q0-.32.032-.623l.096-.625q.032-.192.111-.368a.8.8 0 0 1 .21-.304q.447-.416.832-.448a1.9 1.9 0 0 1 .656.016q.734.16.734 2.352v.095q0 .368-.047.737-.047.368-.111.72-.065.352-.113.672a4 4 0 0 0-.047.608q0 .192.062.4.065.208.225.4.176.177.465.287.303.113.767.114.465 0 .752-.114.288-.111.463-.287a.96.96 0 0 0 .24-.369 1.4 1.4 0 0 0 .065-.398 5.8 5.8 0 0 0-.16-1.346 6.3 6.3 0 0 1-.16-1.424v-.095q0-.752.16-1.424.16-.688.16-1.344 0-.719-.367-1.12a2.15 2.15 0 0 0-.912-.609 3.3 3.3 0 0 0-1.122-.19q-.59-.001-1.039.095a2.6 2.6 0 0 0-1.023.449 3.5 3.5 0 0 0-.705.719 1.46 1.46 0 0 0-.543-.752 2.15 2.15 0 0 0-.832-.4 3 3 0 0 0-.945-.112m28.289-9.81q-.497 0-.801.127a1.3 1.3 0 0 0-.463.336 1.1 1.1 0 0 0-.225.434q-.049.223-.049.447 0 .56.05 1.088.047.528.11 1.056.065.512.114 1.024.047.495.047 1.008v1.279q0 .512-.047 1.008-.048.48-.113.976-.064.496-.112 1.041-.049.528-.049 1.15 0 .226.05.466.063.224.224.431.175.192.463.32.304.13.8.13.48-.002.784-.114.304-.128.465-.32a.9.9 0 0 0 .222-.416q.065-.24.065-.463 0-.624-.047-1.168-.048-.544-.113-1.041a40 40 0 0 1-.112-.992q-.048-.497-.049-1.008v-1.28q0-.511.05-.992.047-.495.11-.992.065-.511.114-1.054.047-.544.047-1.168 0-.225-.065-.45a.9.9 0 0 0-.222-.431 1.1 1.1 0 0 0-.465-.305q-.304-.127-.783-.127M25.4 22.79q-.48 0-.785.127a1.07 1.07 0 0 0-.463.305 1.1 1.1 0 0 0-.224.431q-.048.225-.047.45 0 .624.047 1.168t.111 1.054q.065.497.113.992.048.48.047.993v1.279q0 .512-.047 1.008-.048.48-.113.992-.064.496-.111 1.041-.048.544-.047 1.168 0 .224.047.463.064.224.224.416t.463.32q.305.113.785.113.753-.016 1.073-.273.319-.271.398-.623.496.464 1.152.768.673.288 1.504.289.417 0 1.026-.16a3.05 3.05 0 0 0 1.168-.626q.576-.463.974-1.294.4-.833.4-2.194 0-1.262-.302-2.127-.289-.878-.785-1.424a2.9 2.9 0 0 0-1.137-.785 3.6 3.6 0 0 0-1.344-.256q-.831 0-1.488.225-.656.208-1.168.576-.24.16-.207-.096l.16-1.44q.096-.72.096-1.536 0-.224-.065-.447a.96.96 0 0 0-.207-.434 1.1 1.1 0 0 0-.464-.336q-.288-.127-.784-.127m3.313 5.744q.864 0 1.344.559.495.56.496 1.762 0 .415-.08.783a1.7 1.7 0 0 1-.29.656q-.207.271-.576.447-.35.16-.894.16-.976 0-1.553-.496-.576-.51-.607-1.55-.016-.529.176-.961.207-.432.527-.737.32-.303.705-.463t.752-.16m12.207-.846q-.24 0-.592.064-.352.047-.752.207-.4.144-.8.432-.384.272-.704.736a4 4 0 0 0-.527 1.104q-.192.656-.193 1.568 0 1.313.32 2.225.32.911.832 1.47.511.56 1.137.817.639.24 1.279.24.912 0 1.615-.225.704-.24 1.233-.607a5 5 0 0 1-.127.785q-.096.4-.32.703a1.5 1.5 0 0 1-.561.512q-.336.192-.864.191a6.4 6.4 0 0 1-1.072-.095q-.544-.08-1.297-.448-.383-.175-.687-.175-.353 0-.64.175-.272.176-.417.448a1.16 1.16 0 0 0-.127.61q.016.334.24.638.464.64 1.391 1.04.929.4 2.129.401 1.215 0 2.031-.209.833-.208 1.362-.592.527-.368.798-.896a3.6 3.6 0 0 0 .4-1.12q.13-.608.145-1.296.016-.688.016-1.408v-1.6q0-.512.031-.992l.065-.992q.047-.512.08-1.055.032-.544.033-1.168 0-.225-.064-.465a1.1 1.1 0 0 0-.21-.465 1.1 1.1 0 0 0-.462-.336q-.305-.127-.786-.127-.704.016-1.023.272-.304.255-.416.592a3.6 3.6 0 0 0-1.088-.688q-.608-.271-1.408-.271m.816 2.367q.48 0 .864.176.4.16.671.449.272.288.417.656.16.367.175.768.017.528-.175.943a2 2 0 0 1-.512.672q-.304.272-.688.416a2.4 2.4 0 0 1-.752.129q-.367-.001-.705-.113a1.5 1.5 0 0 1-.592-.368 2 2 0 0 1-.4-.671q-.143-.417-.143-1.008 0-.417.096-.785.113-.368.336-.64.225-.288.576-.448a1.84 1.84 0 0 1 .832-.176M19.656 19.632a5 5 0 0 0-1.84.336 4.4 4.4 0 0 0-1.472.945q-.624.608-.977 1.455-.351.832-.351 1.856 0 1.136.336 1.953.352.8.945 1.328.608.512 1.424.752t1.775.24q.48-.001.977-.098a7 7 0 0 0 .974-.255q.48-.177.881-.416a3 3 0 0 0 .656-.543q.287-.336.287-.721a1.3 1.3 0 0 0-.175-.719 1.56 1.56 0 0 0-.496-.56 1.11 1.11 0 0 0-1.393.047l-.414.353a3 3 0 0 1-.37.287 2 2 0 0 1-.4.192q-.208.064-.511.064-.544 0-.912-.16a1.9 1.9 0 0 1-.608-.447 1.8 1.8 0 0 1-.32-.657 3 3 0 0 1-.096-.783q0-1.073.56-1.697.56-.623 1.536-.623.369 0 .8.095.432.08 1.04.352.24.112.496.111a.77.77 0 0 0 .592-.238q.224-.24.271-.56a1.26 1.26 0 0 0-.078-.657.88.88 0 0 0-.465-.496 14 14 0 0 0-.576-.271 4 4 0 0 0-.607-.24 4.8 4.8 0 0 0-1.488-.225M6.936 29.257q-.48.015-.864.095a2.6 2.6 0 0 0-.96.416 3 3 0 0 0-.688.641q-.048-.367-.385-.687-.32-.32-1.12-.32-.462-.002-.767.126a1.3 1.3 0 0 0-.464.29q-.16.175-.223.382a1.4 1.4 0 0 0-.065.4q0 .288.047.608.048.32.114.672.063.352.11.736.05.368.05.736v.688q0 .367-.05.736-.047.369-.11.72-.065.354-.114.673a4 4 0 0 0-.047.607q0 .193.065.4.063.21.223.401.176.175.464.287.304.113.768.113.465 0 .752-.113.288-.112.465-.287a.96.96 0 0 0 .24-.37q.063-.206.062-.398a5.8 5.8 0 0 0-.16-1.345 6.3 6.3 0 0 1-.16-1.424v-.928q0-.112.018-.24.031-.4.287-.688.24-.271.465-.4.24-.144.447-.191t.385-.032q.192 0 .336.032.735.16.736 2.351v.096q0 .367-.049.736-.048.369-.111.72a22 22 0 0 0-.113.673 4 4 0 0 0-.047.607q0 .193.047.4a1 1 0 0 0 .209.401q.16.175.431.287.288.113.752.113.465 0 .736-.113a1 1 0 0 0 .432-.287.86.86 0 0 0 .207-.37 1.4 1.4 0 0 0 .065-.398 5.8 5.8 0 0 0-.16-1.345 6.3 6.3 0 0 1-.16-1.424v-.096q0-.319.032-.623l.096-.625q.032-.192.111-.367a.8.8 0 0 1 .21-.305q.447-.416.831-.447a1.9 1.9 0 0 1 .657.016q.735.16.734 2.351v.096q0 .367-.047.736t-.111.72q-.065.354-.113.673a4 4 0 0 0-.047.607q0 .192.062.4.065.21.225.401.176.175.465.287.303.113.767.113.465 0 .752-.113.288-.112.463-.287a.96.96 0 0 0 .24-.37 1.4 1.4 0 0 0 .065-.398 5.8 5.8 0 0 0-.16-1.345 6.3 6.3 0 0 1-.16-1.424v-.096q0-.752.16-1.424.16-.687.16-1.343 0-.72-.367-1.12a2.15 2.15 0 0 0-.912-.609 3.3 3.3 0 0 0-1.122-.191q-.59 0-1.039.095a2.6 2.6 0 0 0-1.023.45 3.5 3.5 0 0 0-.705.718 1.46 1.46 0 0 0-.543-.752 2.15 2.15 0 0 0-.832-.4 3 3 0 0 0-.945-.111M35.225 22.79q-.497 0-.801.127a1.3 1.3 0 0 0-.463.336 1.1 1.1 0 0 0-.225.434q-.049.223-.049.447 0 .56.05 1.088.047.528.11 1.056.065.513.114 1.024.047.495.047 1.008v1.279q0 .512-.047 1.008-.048.48-.113.976-.064.497-.112 1.041-.049.528-.049 1.15 0 .225.05.466.063.224.224.431.175.192.463.32.304.13.8.13.48-.002.784-.114.304-.128.465-.32a.9.9 0 0 0 .222-.416q.065-.24.065-.463 0-.624-.047-1.168-.048-.544-.113-1.041a40 40 0 0 1-.112-.992q-.048-.496-.049-1.008v-1.28q0-.511.05-.992.047-.495.11-.992.065-.511.114-1.054.047-.544.047-1.168 0-.225-.065-.45a.9.9 0 0 0-.222-.431 1.1 1.1 0 0 0-.465-.305q-.304-.127-.783-.127M25.4 9.895q-.48 0-.785.127a1.07 1.07 0 0 0-.463.305 1.1 1.1 0 0 0-.224.431q-.048.225-.047.45 0 .624.047 1.168t.111 1.054q.065.496.113.992.048.48.047.993v1.279q0 .511-.047 1.008-.048.48-.113.992-.064.496-.111 1.04-.048.546-.047 1.169 0 .224.047.463.064.225.224.416.16.192.463.32.305.113.785.113.753-.016 1.073-.273.319-.271.398-.623.496.464 1.152.767.673.289 1.504.29.417 0 1.026-.16a3.05 3.05 0 0 0 1.168-.626q.576-.463.974-1.295.4-.832.4-2.193 0-1.263-.302-2.127-.289-.88-.785-1.424a2.9 2.9 0 0 0-1.137-.785 3.6 3.6 0 0 0-1.344-.256q-.831 0-1.488.225-.656.208-1.168.576-.24.16-.207-.096l.16-1.441q.096-.72.096-1.535 0-.224-.065-.447a.96.96 0 0 0-.207-.434 1.1 1.1 0 0 0-.464-.336q-.288-.127-.784-.127m3.313 5.744q.864-.001 1.344.559.495.56.496 1.762 0 .415-.08.783a1.7 1.7 0 0 1-.29.656q-.207.271-.576.447-.35.16-.894.16-.976 0-1.553-.496-.576-.511-.607-1.55-.016-.529.176-.961.207-.432.527-.737.32-.303.705-.463t.752-.16"
    style="fill:#0073aa"/>
  <path
    d="M6.936 38.808q-.48.017-.864.096a2.6 2.6 0 0 0-.96.416 3 3 0 0 0-.688.64q-.048-.367-.385-.687-.32-.32-1.12-.32-.462-.001-.767.127a1.3 1.3 0 0 0-.464.289q-.16.175-.223.383a1.4 1.4 0 0 0-.065.4q0 .288.047.607.048.321.114.672.063.352.11.737.05.367.05.736v.688q0 .367-.05.736-.047.368-.11.72-.065.353-.114.672a4 4 0 0 0-.047.608q0 .192.065.4.063.209.223.4.176.176.464.288.304.112.768.113.465-.001.752-.113.288-.112.465-.287a.96.96 0 0 0 .24-.37q.063-.207.062-.398a5.8 5.8 0 0 0-.16-1.346 6.3 6.3 0 0 1-.16-1.423v-.928q0-.113.018-.24.031-.4.287-.688.24-.272.465-.4.24-.144.447-.192t.385-.031q.192 0 .336.031.735.16.736 2.352v.096q0 .367-.049.736-.048.368-.111.72a22 22 0 0 0-.113.672 4 4 0 0 0-.047.608q0 .192.047.4a1 1 0 0 0 .209.4q.16.176.431.288.288.112.752.113.465-.001.736-.113a1 1 0 0 0 .432-.287.86.86 0 0 0 .207-.37 1.4 1.4 0 0 0 .065-.398 5.8 5.8 0 0 0-.16-1.346 6.3 6.3 0 0 1-.16-1.423v-.096q0-.32.032-.623l.096-.625q.032-.192.111-.367a.8.8 0 0 1 .21-.305q.447-.416.831-.447a1.9 1.9 0 0 1 .657.015q.735.16.734 2.352v.096q0 .367-.047.736-.047.368-.111.72-.065.353-.113.672a4 4 0 0 0-.047.608q0 .193.062.4.065.209.225.4.176.176.465.288.303.112.767.113.465-.001.752-.113.288-.112.463-.287a.96.96 0 0 0 .24-.37 1.4 1.4 0 0 0 .065-.398 5.8 5.8 0 0 0-.16-1.346 6.3 6.3 0 0 1-.16-1.423v-.096q0-.752.16-1.424.16-.688.16-1.344 0-.72-.367-1.119a2.15 2.15 0 0 0-.912-.61 3.3 3.3 0 0 0-1.122-.19q-.59 0-1.039.095a2.6 2.6 0 0 0-1.023.45 3.5 3.5 0 0 0-.705.718 1.46 1.46 0 0 0-.543-.752 2.15 2.15 0 0 0-.832-.4 3 3 0 0 0-.945-.112m33.984 2.424q-.24 0-.592.064-.352.047-.752.207-.4.144-.8.432-.384.272-.704.736a4 4 0 0 0-.527 1.104q-.192.656-.193 1.568 0 1.313.32 2.225.32.911.832 1.47.511.56 1.137.817.639.24 1.279.24.912 0 1.615-.225.704-.24 1.233-.607a5 5 0 0 1-.127.785q-.096.4-.32.703a1.5 1.5 0 0 1-.561.512q-.336.191-.864.191a6.4 6.4 0 0 1-1.072-.095q-.544-.08-1.297-.448-.383-.175-.687-.175-.353 0-.64.175-.272.176-.417.448a1.16 1.16 0 0 0-.127.609q.016.335.24.639.464.64 1.391 1.04.929.4 2.129.401 1.215 0 2.031-.209.833-.208 1.362-.592.527-.368.798-.896a3.6 3.6 0 0 0 .4-1.12q.13-.608.145-1.296.016-.688.016-1.408v-1.6q0-.512.031-.992l.065-.992q.047-.512.08-1.055.032-.544.033-1.168 0-.225-.064-.465a1.1 1.1 0 0 0-.21-.465 1.1 1.1 0 0 0-.462-.336q-.305-.127-.786-.127-.704.016-1.023.272-.304.256-.416.592a3.6 3.6 0 0 0-1.088-.688q-.608-.271-1.408-.271m.816 2.367q.48 0 .864.176.4.16.671.449.272.288.417.656.16.367.175.768.017.528-.175.943a2 2 0 0 1-.512.672q-.304.272-.688.416a2.4 2.4 0 0 1-.752.129q-.367 0-.705-.114a1.5 1.5 0 0 1-.592-.367 2 2 0 0 1-.4-.672q-.143-.416-.143-1.007 0-.417.096-.786.113-.367.336-.638.225-.289.576-.45a1.84 1.84 0 0 1 .832-.175m-6.511-7.914q-.497 0-.801.127a1.3 1.3 0 0 0-.463.336 1.1 1.1 0 0 0-.225.434q-.049.224-.049.447 0 .56.05 1.088.047.528.11 1.057.065.51.114 1.023.047.495.047 1.008v1.28q0 .51-.047 1.007-.048.48-.113.976-.064.497-.112 1.041-.049.528-.049 1.15 0 .225.05.466.063.224.224.431.175.192.463.32.304.13.8.13.48-.002.784-.114.304-.128.465-.32a.9.9 0 0 0 .222-.416q.065-.24.065-.463 0-.624-.047-1.168-.048-.545-.113-1.04a40 40 0 0 1-.112-.993q-.048-.496-.049-1.008v-1.28q0-.51.05-.991.047-.497.11-.993.065-.511.114-1.054.047-.544.047-1.168 0-.225-.065-.45a.9.9 0 0 0-.222-.431 1.1 1.1 0 0 0-.465-.305q-.304-.127-.783-.127m-9.825 0q-.48 0-.785.127a1.07 1.07 0 0 0-.463.305 1.1 1.1 0 0 0-.224.432q-.048.224-.047.449 0 .624.047 1.168t.111 1.054q.065.497.113.993.048.48.047.992v1.28q0 .51-.047 1.007-.048.48-.113.992-.064.496-.111 1.041-.048.544-.047 1.168 0 .224.047.463.064.224.224.416t.463.32q.305.113.785.114.753-.017 1.073-.274.319-.271.398-.623.496.464 1.152.768.673.289 1.504.289.417 0 1.026-.16a3.05 3.05 0 0 0 1.168-.625q.576-.464.974-1.295.4-.833.4-2.194 0-1.262-.302-2.127-.289-.878-.785-1.424a2.9 2.9 0 0 0-1.137-.785 3.6 3.6 0 0 0-1.344-.256q-.831 0-1.488.225-.656.208-1.168.576-.24.16-.207-.095l.16-1.442q.096-.72.096-1.535 0-.224-.065-.447a.96.96 0 0 0-.207-.434 1.1 1.1 0 0 0-.464-.336q-.288-.127-.784-.127m3.313 5.744q.864 0 1.344.559.495.56.496 1.762 0 .415-.08.783a1.7 1.7 0 0 1-.29.656q-.207.271-.576.447-.35.16-.894.16-.976 0-1.553-.496-.576-.51-.607-1.55-.016-.528.176-.961.207-.432.527-.737.32-.303.705-.462t.752-.16m-9.057-2.766a5 5 0 0 0-1.84.336 4.4 4.4 0 0 0-1.472.945q-.624.608-.977 1.455-.351.832-.351 1.856 0 1.136.336 1.953.352.8.945 1.328.608.512 1.424.752t1.775.24q.48-.001.977-.098a7 7 0 0 0 .974-.255q.48-.177.881-.417a3 3 0 0 0 .656-.542q.287-.337.287-.721a1.3 1.3 0 0 0-.175-.719 1.56 1.56 0 0 0-.496-.56 1.11 1.11 0 0 0-1.393.046q-.224.193-.414.354a3 3 0 0 1-.37.287 2 2 0 0 1-.4.191q-.208.065-.511.065-.544 0-.912-.16a1.9 1.9 0 0 1-.608-.448 1.8 1.8 0 0 1-.32-.656 3 3 0 0 1-.096-.783q0-1.073.56-1.697.56-.623 1.536-.623.369 0 .8.095.432.08 1.04.352.24.112.496.111a.77.77 0 0 0 .592-.238q.224-.24.271-.56a1.26 1.26 0 0 0-.078-.657.88.88 0 0 0-.465-.496 14 14 0 0 0-.576-.271 4 4 0 0 0-.607-.24 4.8 4.8 0 0 0-1.488-.225"
    style="fill:#003653"/>
</svg>