<?xml version="1.0" encoding="UTF-8" standalone="no"?>
<!-- Created with Inkscape (http://www.inkscape.org/) -->

<svg
   width="48"
   height="48"
   viewBox="0 0 48 48"
   version="1.1"
   id="svg1"
   sodipodi:docname="logo.svg"
   inkscape:version="1.3.2 (091e20ef0f, 2023-11-25, custom)"
   inkscape:export-filename="logo-plain.svg"
   inkscape:export-xdpi="96"
   inkscape:export-ydpi="96"
   xmlns:inkscape="http://www.inkscape.org/namespaces/inkscape"
   xmlns:sodipodi="http://sodipodi.sourceforge.net/DTD/sodipodi-0.dtd"
   xmlns="http://www.w3.org/2000/svg"
   xmlns:svg="http://www.w3.org/2000/svg">
  <sodipodi:namedview
     id="namedview1"
     pagecolor="#ffffff"
     bordercolor="#000000"
     borderopacity="0.25"
     inkscape:showpageshadow="2"
     inkscape:pageopacity="0.0"
     inkscape:pagecheckerboard="0"
     inkscape:deskcolor="#d1d1d1"
     inkscape:document-units="px"
     inkscape:zoom="12.565877"
     inkscape:cx="17.587312"
     inkscape:cy="19.855359"
     inkscape:window-width="1920"
     inkscape:window-height="1029"
     inkscape:window-x="0"
     inkscape:window-y="24"
     inkscape:window-maximized="1"
     inkscape:current-layer="layer1"
     showguides="true" />
  <defs
     id="defs1" />
  <g
     inkscape:label="图层 1"
     inkscape:groupmode="layer"
     id="layer1">
    <path
       d="M 24,-1.1825562e-5 V 23.999988 h 9.000003 V -1.1825562e-5 Z M 44.000009,11.800005 c 1.811881,-1.11 3.138605,-3.1600169 3.138605,-5.4400168 0,-3.51 -2.821783,-6.360000025562 -6.29703,-6.360000025562 H 39.000006 V 23.999988 h 2.702964 c 3.475248,0 6.29703,-2.85 6.29703,-6.359999 0,-2.640001 -1.712864,-4.879984 -3.999991,-5.839984 z"
       id="text1"
       aria-label="B"
       sodipodi:nodetypes="ccccccssccssc"
       style="fill:#0071a7" />
    <path
       d="m 24,24 v 24 h 8.999753 V 24 Z M 37.999747,48 48,35.800033 V 48 Z"
       id="text1-4"
       style="fill:#0071a7"
       aria-label="L"
       sodipodi:nodetypes="ccccccccc" />
    <path
       d="M 8.9999955,24 C 4.0736798,24 0,20.275862 0,15.665024 V 8.334975 C 0,3.724137 4.0736798,0 8.9999955,0 Z m 5.9999985,0 C 19.92631,24 24,20.275862 24,15.665024 V 8.334975 C 24,3.724137 19.92631,0 14.999994,0 Z"
       id="text1-4-2"
       style="fill:#0071a7"
       aria-label="O"
       sodipodi:nodetypes="csscccsscc" />
    <path
       d="M 8.999996,24 V 48 C 4.07368,48 0,44.275862 0,39.665024 V 32.334975 C 0,27.724137 4.07368,24 8.999996,24 Z M 15,33.500025 V 24 c 5.68421,0 9,4.179827 9,9.500025 z M 15,38.8 c 3.284211,5.201971 5.431574,7.810837 8.999996,9.2 v -9.2 z"
       id="text1-4-2-2"
       style="fill:#0071a7"
       aria-label="G"
       sodipodi:nodetypes="ccssccccccccc" />
  </g>
</svg>
