<svg xmlns="http://www.w3.org/2000/svg" width="48" height="48">
  <path
    d="M20-4v32h12V-4ZM43.782 9.37c2.416-1.48 4.992-2.566 4.992-5.606 0-2.34-.642-4.227-1.864-5.53s-3.027-1.88-5.34-2.02L38-4v32h4c4.634 0 8.997-2.869 9.355-7.549.135-1.755-.2-6.592-1.855-8.135s-4.193-2.306-5.718-2.946"
    aria-label="B" style="opacity:.5;fill:#0071a7"/>
  <path
    d="M20 20v32h12V20Zm17.5 32V42L52 35v17z"
    aria-label="L" style="opacity:.5;fill:#0071a7"/>
  <path
    d="M9 28C2.432 28-4 22.148-4 16V8C-4 1.852 2.432-4 9-4Zm6 0c6.568 0 13-5.852 13-12V8c0-6.148-6.432-12-13-12Z"
    aria-label="O" style="opacity:.5;fill:#0071a7"/>
  <path
    d="M9 20v32C2.432 52-4 47.034-4 40.887v-9.774C-4 24.966 2.432 20 9 20m6 12.667V20c7.579 0 13 5.573 13 12.667zM14.5 38c.153 7.795 7.166 14.01 13.5 14V38Z"
    aria-label="G" style="opacity:.5;fill:#0071a7"/>
</svg>