<svg xmlns="http://www.w3.org/2000/svg" width="96" height="48">
  <g style="fill:#0071a7">
    <path
      d="M0 12v24h9V12Zm20 11.8c1.812-1.11 3.139-3.16 3.139-5.44 0-3.51-2.822-6.36-6.297-6.36H15v24h2.703C21.178 36 24 33.15 24 29.64c0-2.64-1.713-4.88-4-5.84"
      aria-label="B"/>
    <path
      d="M24 12v24h9V12Zm14 24 10-7.2V36Z"
      aria-label="L"/>
    <path
      d="M57 36c-4.926 0-9-3.724-9-8.335v-7.33C48 15.725 52.074 12 57 12Zm6 0c4.926 0 9-3.724 9-8.335v-7.33C72 15.725 67.926 12 63 12Z"
      aria-label="O"/>
    <path
      d="M81 12v24c-4.926 0-9-3.724-9-8.335v-7.33C72 15.725 76.074 12 81 12m5 9.5V12c5.684 0 10 4.18 10 9.5zm0 4.8c3.284 5.202 6.432 8.31 10 9.7v-9.7z"
      aria-label="G"/>
  </g>
</svg>