<svg xmlns="http://www.w3.org/2000/svg" width="48" height="48">
  <g style="fill:#0071a7">
    <path
      d="M24 0v24h9V0Zm20 11.8c1.812-1.11 3.139-3.16 3.139-5.44 0-3.51-2.822-6.36-6.297-6.36H39v24h2.703C45.178 24 48 21.15 48 17.64c0-2.64-1.713-4.88-4-5.84"
      aria-label="B"/>
    <path
      d="M24 24v24h9V24Zm14 24 10-12.2V48Z"
      aria-label="L"/>
    <path
      d="M9 24c-4.926 0-9-3.724-9-8.335v-7.33C0 3.725 4.074 0 9 0Zm6 0c4.926 0 9-3.724 9-8.335v-7.33C24 3.725 19.926 0 15 0Z"
      aria-label="O"/>
    <path
      d="M9 24v24c-4.926 0-9-3.724-9-8.335v-7.33C0 27.725 4.074 24 9 24m6 9.5V24c5.684 0 9 4.18 9 9.5zm0 5.3c3.284 5.202 5.432 7.81 9 9.2v-9.2z"
      aria-label="G"/>
  </g>
</svg>