<?xml version="1.0" encoding="UTF-8" standalone="no"?>
<svg
   width="96"
   height="48"
   version="1.1"
   id="svg4"
   sodipodi:docname="logo-rect.svg"
   inkscape:version="1.3.2 (091e20ef0f, 2023-11-25, custom)"
   xmlns:inkscape="http://www.inkscape.org/namespaces/inkscape"
   xmlns:sodipodi="http://sodipodi.sourceforge.net/DTD/sodipodi-0.dtd"
   xmlns="http://www.w3.org/2000/svg"
   xmlns:svg="http://www.w3.org/2000/svg">
  <defs
     id="defs4" />
  <sodipodi:namedview
     id="namedview4"
     pagecolor="#ffffff"
     bordercolor="#000000"
     borderopacity="0.25"
     inkscape:showpageshadow="2"
     inkscape:pageopacity="0.0"
     inkscape:pagecheckerboard="0"
     inkscape:deskcolor="#d1d1d1"
     inkscape:zoom="8.8854167"
     inkscape:cx="40.853458"
     inkscape:cy="19.188746"
     inkscape:window-width="1920"
     inkscape:window-height="1029"
     inkscape:window-x="0"
     inkscape:window-y="24"
     inkscape:window-maximized="1"
     inkscape:current-layer="svg4" />
  <path
     d="M 0,12 V 36 H 9 V 12 Z m 20,11.8 c 1.812,-1.11 3.139,-3.16 3.139,-5.44 0,-3.51 -2.822,-6.36 -6.297,-6.36 H 15 v 24 h 2.703 C 21.178,36 24,33.15 24,29.64 24,27 22.287,24.76 20,23.8"
     aria-label="B"
     id="path1"
     style="fill:#0071a7" />
  <path
     d="m 24,12 v 24 h 9 V 12 Z M 38,36 48,28.8 V 36 Z"
     aria-label="L"
     id="path2"
     style="fill:#0071a7"
     sodipodi:nodetypes="ccccccccc" />
  <path
     d="m 57,36 c -4.926,0 -9,-3.724 -9,-8.335 v -7.33 C 48,15.725 52.074,12 57,12 Z m 6,0 c 4.926,0 9,-3.724 9,-8.335 v -7.33 C 72,15.725 67.926,12 63,12 Z"
     aria-label="O"
     id="path3"
     style="fill:#0071a7" />
  <path
     d="m 81,12 v 24 c -4.926,0 -9,-3.724 -9,-8.335 v -7.33 C 72,15.725 76.074,12 81,12 m 5,9.5 V 12 c 5.684,0 10,4.18 10,9.5 z m 0,4.8 c 3.284,5.202 6.432,8.31 10,9.7 v -9.7 z"
     aria-label="G"
     id="path4"
     style="fill:#0071a7" />
</svg>
