<svg xmlns="http://www.w3.org/2000/svg" width="50" height="50">
  <path
    d="M42.698 1.6q-.251 0-.62.064-.367.047-.785.207-.418.144-.836.432-.401.272-.736.736a4.18 4 0 0 0-.55 1.104q-.2.656-.202 1.568 0 1.313.334 2.225.335.911.87 1.47.534.56 1.188.817.668.24 1.337.24.953 0 1.687-.224.736-.24 1.289-.608a5.225 5 0 0 1-.133.785q-.1.4-.334.704a1.567 1.5 0 0 1-.587.511q-.35.192-.903.192a6.688 6.4 0 0 1-1.12-.096q-.568-.08-1.355-.447-.4-.176-.718-.176-.369 0-.669.176-.284.176-.436.447a1.212 1.16 0 0 0-.132.61q.016.334.25.638.485.64 1.454 1.041.97.4 2.225.4 1.27 0 2.122-.209.87-.207 1.423-.591.551-.369.834-.897a3.762 3.6 0 0 0 .418-1.119q.136-.608.152-1.297.017-.688.017-1.408v-1.6q0-.512.032-.992l.068-.992q.049-.511.084-1.055.033-.544.034-1.168 0-.225-.067-.465a1.15 1.1 0 0 0-.22-.464 1.15 1.1 0 0 0-.482-.336q-.319-.128-.821-.127-.736.015-1.07.271-.317.255-.434.592a3.762 3.6 0 0 0-1.137-.688q-.635-.27-1.471-.271m.852 2.367q.502 0 .903.176.418.16.701.45.285.287.436.655.167.368.183.768.018.528-.183.943a2.09 2 0 0 1-.535.672q-.318.272-.719.416a2.508 2.4 0 0 1-.786.13q-.383-.002-.736-.114a1.567 1.5 0 0 1-.62-.367 2.09 2 0 0 1-.417-.672q-.15-.416-.15-1.008 0-.417.1-.785.119-.367.352-.639.235-.288.602-.449a1.923 1.84 0 0 1 .87-.176m-23.074 7.149a5.225 5 0 0 0-1.923.336 4.598 4.4 0 0 0-1.538.945q-.652.608-1.02 1.455-.368.832-.368 1.856 0 1.136.352 1.953.367.8.987 1.328.635.512 1.488.752t1.855.24q.502 0 1.02-.097a7.315 7 0 0 0 1.019-.256q.501-.177.92-.416a3.135 3 0 0 0 .686-.543q.3-.336.3-.721a1.358 1.3 0 0 0-.183-.719 1.63 1.56 0 0 0-.518-.56 1.16 1.11 0 0 0-1.456.047l-.433.353a3.135 3 0 0 1-.386.287 2.09 2 0 0 1-.418.192q-.218.064-.534.064-.569 0-.953-.16a1.985 1.9 0 0 1-.636-.447 1.881 1.8 0 0 1-.334-.657 3.135 3 0 0 1-.1-.783q0-1.073.585-1.697.585-.623 1.605-.623.385 0 .836.096.451.08 1.087.351.25.112.518.111a.805.77 0 0 0 .619-.238q.234-.24.283-.56a1.317 1.26 0 0 0-.082-.657.92.88 0 0 0-.486-.496 14.63 14 0 0 0-.602-.271 4.18 4 0 0 0-.634-.24 5.016 4.8 0 0 0-1.555-.225m-13.293.037q-.502.016-.903.096a2.717 2.6 0 0 0-1.003.416 3.135 3 0 0 0-.719.64q-.05-.367-.402-.687-.335-.32-1.17-.32-.483 0-.802.127a1.358 1.3 0 0 0-.486.289q-.166.175-.232.383a1.463 1.4 0 0 0-.068.4q0 .287.05.608.05.32.118.671.066.352.115.737.052.367.052.736v.688q0 .367-.052.736-.049.368-.115.72-.068.353-.119.673a4.18 4 0 0 0-.049.607q0 .192.068.4.067.209.232.4.185.176.486.288.317.113.802.113t.786-.113q.301-.112.486-.287a1.003.96 0 0 0 .25-.37q.067-.207.066-.398a6.06 5.8 0 0 0-.168-1.346 6.583 6.3 0 0 1-.167-1.423v-.928q0-.112.02-.24.031-.4.299-.688.25-.272.486-.4.25-.144.467-.192.216-.048.402-.03.201 0 .351.03.77.16.77 2.352v.096q0 .367-.052.736-.05.368-.116.72-.068.353-.118.673a4.18 4 0 0 0-.049.607q0 .193.05.4a1.045 1 0 0 0 .218.4q.167.176.45.288.301.113.786.113t.769-.113a1.045 1 0 0 0 .451-.287.899.86 0 0 0 .217-.37 1.463 1.4 0 0 0 .068-.398 6.06 5.8 0 0 0-.168-1.346 6.583 6.3 0 0 1-.167-1.423v-.096q0-.319.034-.623l.1-.625q.033-.192.116-.367a.836.8 0 0 1 .22-.305q.467-.416.868-.447a1.985 1.9 0 0 1 .686.015q.768.16.767 2.352v.096q0 .367-.049.736-.049.368-.116.72-.068.353-.118.673a4.18 4 0 0 0-.049.607q0 .193.065.4.068.209.235.4.184.176.486.288.317.113.801.113t.786-.113q.301-.112.484-.287a1.003.96 0 0 0 .25-.37 1.463 1.4 0 0 0 .069-.398 6.06 5.8 0 0 0-.167-1.346 6.583 6.3 0 0 1-.168-1.423v-.096q0-.752.168-1.424.167-.688.167-1.344 0-.72-.384-1.119a2.247 2.15 0 0 0-.953-.61 3.448 3.3 0 0 0-1.172-.19q-.617 0-1.086.095a2.717 2.6 0 0 0-1.069.45 3.657 3.5 0 0 0-.737.718 1.526 1.46 0 0 0-.567-.752 2.247 2.15 0 0 0-.87-.4 3.135 3 0 0 0-.987-.112m0-9.551q-.502.015-.903.096a2.717 2.6 0 0 0-1.003.416 3.135 3 0 0 0-.719.64q-.05-.367-.402-.687-.335-.32-1.17-.32-.483-.001-.802.126a1.358 1.3 0 0 0-.485.29q-.167.174-.233.382a1.463 1.4 0 0 0-.068.4q0 .289.05.608.05.32.118.672.066.352.115.736.052.368.052.737v.687q0 .368-.052.736-.049.369-.115.721-.068.353-.119.672a4.18 4 0 0 0-.049.607q0 .193.068.4.066.21.233.401.184.176.485.287.317.113.802.114.486-.001.786-.114.301-.111.486-.287a1.003.96 0 0 0 .25-.369q.067-.207.066-.398a6.06 5.8 0 0 0-.168-1.346 6.583 6.3 0 0 1-.167-1.424v-.927q0-.113.02-.241.032-.4.299-.687.25-.273.486-.4.25-.145.467-.192.216-.047.402-.032.201 0 .351.032.77.16.77 2.351v.096q0 .368-.052.736-.05.369-.116.721a22.99 22 0 0 0-.118.672 4.18 4 0 0 0-.049.607q0 .193.05.4a1.045 1 0 0 0 .218.401q.167.176.45.287.301.113.786.114.486-.001.769-.114a1.045 1 0 0 0 .451-.287.899.86 0 0 0 .217-.369 1.463 1.4 0 0 0 .068-.398 6.06 5.8 0 0 0-.168-1.346 6.583 6.3 0 0 1-.167-1.424v-.096q0-.319.034-.623l.1-.625q.033-.192.116-.367a.836.8 0 0 1 .22-.305q.467-.416.868-.447a1.985 1.9 0 0 1 .686.016q.768.16.767 2.351v.096q0 .368-.049.736-.049.369-.116.721-.068.353-.118.672a4.18 4 0 0 0-.049.607q0 .192.065.4.068.21.235.401.184.176.486.287.317.113.801.114.485-.002.786-.114.301-.111.484-.287a1.003.96 0 0 0 .25-.369 1.463 1.4 0 0 0 .069-.398 6.06 5.8 0 0 0-.167-1.346 6.583 6.3 0 0 1-.168-1.424v-.096q0-.752.168-1.424.167-.687.167-1.343 0-.72-.384-1.12a2.247 2.15 0 0 0-.953-.609 3.448 3.3 0 0 0-1.172-.191q-.617 0-1.086.096a2.717 2.6 0 0 0-1.069.449 3.657 3.5 0 0 0-.737.718 1.526 1.46 0 0 0-.567-.751 2.247 2.15 0 0 0-.87-.4 3.135 3 0 0 0-.987-.112M36.746-2q-.519 0-.837.127a1.358 1.3 0 0 0-.483.336 1.15 1.1 0 0 0-.236.433q-.05.224-.05.448 0 .56.051 1.088t.115 1.056q.068.512.12 1.024.049.495.049 1.008v1.279q0 .512-.05 1.008-.05.48-.118.976-.066.497-.117 1.041-.05.528-.05 1.15 0 .225.051.465.066.224.235.432.182.192.483.32.318.13.836.13.502-.002.82-.114.317-.128.486-.32a.94.9 0 0 0 .232-.416q.067-.24.067-.463 0-.624-.049-1.168-.05-.544-.118-1.041a41.8 40 0 0 1-.117-.992q-.05-.497-.051-1.008v-1.28q0-.511.052-.992.05-.495.115-.992.068-.511.12-1.055.048-.543.048-1.167 0-.225-.067-.45a.94.9 0 0 0-.232-.431 1.15 1.1 0 0 0-.486-.305Q37.247-2 36.746-2M26.48-2q-.501 0-.82.127a1.118 1.07 0 0 0-.484.305 1.15 1.1 0 0 0-.234.431q-.05.225-.049.45 0 .623.05 1.167.048.544.115 1.055.068.496.118.992.05.48.05.993v1.279q0 .512-.05 1.008-.05.48-.118.992-.067.496-.116 1.04-.05.545-.049 1.169 0 .224.05.463.066.224.233.416.168.192.484.32.319.113.82.113.787-.016 1.122-.273.333-.272.416-.623.518.465 1.203.767.704.289 1.572.29.436 0 1.072-.16a3.187 3.05 0 0 0 1.22-.626q.603-.463 1.019-1.295.418-.832.418-2.193 0-1.263-.316-2.127-.302-.88-.82-1.424a3.03 2.9 0 0 0-1.19-.785 3.762 3.6 0 0 0-1.404-.256q-.868 0-1.555.225-.685.208-1.22.576-.251.16-.217-.096l.167-1.441q.1-.72.1-1.535 0-.224-.067-.448a1.003.96 0 0 0-.216-.433 1.15 1.1 0 0 0-.485-.336Q26.998-2 26.479-2m3.462 5.744q.903-.001 1.405.559.517.56.518 1.761 0 .416-.083.784a1.776 1.7 0 0 1-.303.656q-.217.271-.602.447-.366.16-.935.16-1.02 0-1.622-.496-.602-.511-.635-1.55-.016-.53.184-.961.217-.432.551-.737.334-.303.737-.463t.785-.16M20.477 1.6a5.225 5 0 0 0-1.923.336 4.598 4.4 0 0 0-1.538.945q-.652.608-1.02 1.455-.368.832-.368 1.856 0 1.136.352 1.953.367.8.987 1.328.635.512 1.488.752t1.855.24q.502 0 1.02-.097a7.315 7 0 0 0 1.019-.256q.501-.177.92-.416a3.135 3 0 0 0 .686-.543q.3-.337.3-.721a1.358 1.3 0 0 0-.183-.719 1.63 1.56 0 0 0-.518-.56 1.16 1.11 0 0 0-1.456.047l-.433.353a3.135 3 0 0 1-.386.287 2.09 2 0 0 1-.418.192q-.218.064-.534.064-.569 0-.953-.16a1.985 1.9 0 0 1-.636-.447 1.881 1.8 0 0 1-.334-.657 3.135 3 0 0 1-.1-.783q0-1.072.585-1.697.585-.623 1.605-.623.385 0 .836.096.451.08 1.087.351.25.112.518.111a.805.77 0 0 0 .619-.238q.234-.24.283-.56a1.317 1.26 0 0 0-.082-.657.92.88 0 0 0-.486-.496 14.63 14 0 0 0-.602-.271 4.18 4 0 0 0-.634-.24 5.016 4.8 0 0 0-1.555-.225"
    style="fill:#b0deff"/>
  <path
    d="M42.698 15.144q-.251 0-.62.064-.367.047-.785.207-.418.144-.836.432-.401.272-.736.736a4.18 4 0 0 0-.55 1.104q-.2.656-.202 1.568 0 1.313.334 2.225.335.911.87 1.47.534.56 1.188.817.668.24 1.337.24.953 0 1.687-.224.736-.24 1.289-.608a5.225 5 0 0 1-.133.785q-.1.4-.334.703a1.567 1.5 0 0 1-.587.512q-.35.192-.903.192a6.688 6.4 0 0 1-1.12-.096q-.568-.08-1.355-.447-.4-.176-.718-.176-.369 0-.669.176-.284.175-.436.447a1.212 1.16 0 0 0-.132.61q.016.334.25.638.485.64 1.454 1.04.97.401 2.225.401 1.27 0 2.122-.209.87-.208 1.423-.592.551-.368.834-.896a3.762 3.6 0 0 0 .418-1.12q.136-.607.152-1.296.017-.688.017-1.408v-1.6q0-.512.032-.992l.068-.992q.049-.512.084-1.055.033-.544.034-1.168 0-.225-.067-.465a1.15 1.1 0 0 0-.22-.465 1.15 1.1 0 0 0-.482-.335q-.319-.128-.821-.127-.736.015-1.07.271-.317.255-.434.592a3.762 3.6 0 0 0-1.137-.688q-.635-.271-1.471-.271m.852 2.367q.502 0 .903.176.418.16.701.449.285.288.436.656.167.368.183.768.018.528-.183.943a2.09 2 0 0 1-.535.672q-.318.272-.719.416a2.508 2.4 0 0 1-.786.129q-.383-.001-.736-.113a1.567 1.5 0 0 1-.62-.367 2.09 2 0 0 1-.417-.672q-.15-.416-.15-1.008 0-.416.1-.785.119-.368.352-.639.235-.289.602-.45a1.923 1.84 0 0 1 .87-.175M20.476 30.148a5.225 5 0 0 0-1.923.336 4.598 4.4 0 0 0-1.538.945q-.652.608-1.02 1.455-.368.832-.368 1.856 0 1.136.352 1.953.367.8.987 1.328.635.512 1.488.752t1.855.24q.502-.001 1.02-.098a7.315 7 0 0 0 1.019-.255q.501-.177.92-.416a3.135 3 0 0 0 .686-.543q.3-.337.3-.721a1.358 1.3 0 0 0-.183-.719 1.63 1.56 0 0 0-.518-.56 1.16 1.11 0 0 0-1.456.046q-.234.193-.433.354a3.135 3 0 0 1-.386.287 2.09 2 0 0 1-.418.191q-.218.065-.534.065-.569 0-.953-.16a1.985 1.9 0 0 1-.636-.447 1.881 1.8 0 0 1-.334-.657 3.135 3 0 0 1-.1-.783q0-1.073.585-1.697.585-.623 1.605-.623.385 0 .836.095.451.08 1.087.352.25.112.518.111a.805.77 0 0 0 .619-.238q.234-.24.283-.56a1.317 1.26 0 0 0-.082-.657.92.88 0 0 0-.486-.496 14.63 14 0 0 0-.602-.271 4.18 4 0 0 0-.634-.24 5.016 4.8 0 0 0-1.555-.225M7.185 20.705q-.502.015-.903.096a2.717 2.6 0 0 0-1.003.416 3.135 3 0 0 0-.719.64q-.05-.367-.402-.687-.335-.32-1.17-.32-.483-.001-.802.127a1.358 1.3 0 0 0-.485.289q-.167.175-.233.382a1.463 1.4 0 0 0-.068.4q0 .289.05.608.05.32.118.672.066.352.115.736.052.369.052.737v.687q0 .369-.052.737-.049.368-.115.72-.068.353-.119.672a4.18 4 0 0 0-.049.608q0 .192.068.4.067.208.233.4.184.176.485.287.317.113.802.114.486 0 .786-.114.301-.111.486-.287a1.003.96 0 0 0 .25-.369q.067-.206.066-.398a6.06 5.8 0 0 0-.168-1.346 6.583 6.3 0 0 1-.167-1.424v-.927q0-.113.02-.24.031-.4.299-.688.25-.273.486-.4.25-.145.467-.192.216-.047.402-.031.201 0 .351.031.77.16.77 2.352v.095q0 .369-.052.737-.05.368-.116.72-.068.353-.118.672a4.18 4 0 0 0-.049.608q0 .192.05.4a1.045 1 0 0 0 .218.4q.167.176.45.287.301.113.786.114.486 0 .769-.114a1.045 1 0 0 0 .451-.287.899.86 0 0 0 .217-.369 1.463 1.4 0 0 0 .068-.398 6.06 5.8 0 0 0-.168-1.346 6.583 6.3 0 0 1-.167-1.424v-.095q0-.32.034-.623l.1-.625q.033-.192.116-.368a.836.8 0 0 1 .22-.304q.467-.416.869-.448a1.985 1.9 0 0 1 .685.016q.767.16.767 2.352v.095q0 .368-.049.737-.049.368-.116.72-.068.352-.118.672a4.18 4 0 0 0-.049.608q0 .192.065.4.068.208.235.4.184.177.486.287.317.113.801.114.486 0 .786-.114.301-.111.484-.287a1.003.96 0 0 0 .25-.369 1.463 1.4 0 0 0 .069-.398 6.06 5.8 0 0 0-.167-1.346 6.583 6.3 0 0 1-.168-1.424v-.095q0-.752.168-1.424.167-.688.167-1.344 0-.719-.384-1.12a2.247 2.15 0 0 0-.953-.609 3.448 3.3 0 0 0-1.172-.19q-.617-.001-1.086.095a2.717 2.6 0 0 0-1.069.449 3.657 3.5 0 0 0-.737.719 1.526 1.46 0 0 0-.567-.752 2.247 2.15 0 0 0-.87-.4 3.135 3 0 0 0-.987-.112m29.561-9.81q-.519 0-.837.127a1.358 1.3 0 0 0-.483.336 1.15 1.1 0 0 0-.236.434q-.05.223-.05.447 0 .56.051 1.088t.115 1.056q.068.512.12 1.024.049.495.049 1.008v1.279q0 .512-.05 1.008-.05.48-.118.976-.066.496-.117 1.041-.05.528-.05 1.15 0 .226.051.466.066.224.235.431.182.192.483.32.318.13.836.13.502-.002.82-.114.317-.128.486-.32a.94.9 0 0 0 .232-.416q.067-.24.067-.463 0-.624-.049-1.168-.05-.544-.118-1.041a41.8 40 0 0 1-.117-.992q-.05-.497-.051-1.008v-1.28q0-.511.052-.992.05-.495.115-.992.068-.511.12-1.054.048-.544.048-1.168 0-.225-.067-.45a.94.9 0 0 0-.232-.431 1.15 1.1 0 0 0-.486-.305q-.318-.127-.819-.127M26.48 23.79q-.501 0-.82.127a1.118 1.07 0 0 0-.484.305 1.15 1.1 0 0 0-.234.431q-.05.225-.049.45 0 .624.05 1.168.048.544.115 1.054.068.497.118.992.05.48.05.993v1.279q0 .512-.05 1.008-.05.48-.118.992-.067.496-.116 1.041-.05.544-.049 1.168 0 .224.05.463.066.224.233.416.168.192.484.32.319.113.82.113.787-.016 1.122-.273.333-.271.416-.623.518.464 1.203.768.704.288 1.572.289.436 0 1.072-.16a3.187 3.05 0 0 0 1.22-.626q.603-.463 1.019-1.294.418-.833.418-2.194 0-1.262-.316-2.127-.302-.878-.82-1.424a3.03 2.9 0 0 0-1.188-.785 3.762 3.6 0 0 0-1.405-.256q-.868 0-1.555.225-.685.208-1.22.576-.251.16-.217-.096l.168-1.44q.1-.72.1-1.536 0-.224-.068-.447a1.003.96 0 0 0-.216-.434 1.15 1.1 0 0 0-.485-.336q-.301-.127-.82-.127m3.462 5.744q.903 0 1.405.559.517.56.518 1.762 0 .415-.083.783a1.776 1.7 0 0 1-.303.656q-.217.271-.602.447-.366.16-.935.16-1.02 0-1.622-.496-.602-.51-.635-1.55-.016-.529.184-.961.217-.432.551-.737.334-.303.737-.463t.785-.16m12.757-.846q-.251 0-.62.064-.367.047-.785.207-.418.144-.836.432-.401.272-.736.736a4.18 4 0 0 0-.55 1.104q-.2.656-.202 1.568 0 1.313.334 2.225.335.911.87 1.47.534.56 1.188.817.668.24 1.337.24.953 0 1.687-.225.736-.24 1.289-.607a5.225 5 0 0 1-.133.785q-.1.4-.334.703a1.567 1.5 0 0 1-.587.512q-.35.192-.903.191a6.688 6.4 0 0 1-1.12-.095q-.568-.08-1.355-.448-.4-.175-.718-.175-.369 0-.669.175-.284.176-.436.448a1.212 1.16 0 0 0-.132.61q.016.334.25.638.485.64 1.454 1.04.97.4 2.225.401 1.27 0 2.122-.209.87-.208 1.423-.592.551-.368.834-.896a3.762 3.6 0 0 0 .418-1.12q.136-.608.152-1.296.017-.688.017-1.408v-1.6q0-.512.032-.992l.068-.992q.049-.512.084-1.055.033-.544.034-1.168 0-.225-.067-.465a1.15 1.1 0 0 0-.22-.465 1.15 1.1 0 0 0-.482-.336q-.319-.127-.821-.127-.736.016-1.07.272-.317.255-.434.592a3.762 3.6 0 0 0-1.137-.688q-.635-.271-1.471-.271m.852 2.367q.502 0 .903.176.418.16.701.449.285.288.436.656.167.367.183.768.018.528-.183.943a2.09 2 0 0 1-.535.672q-.318.272-.719.416a2.508 2.4 0 0 1-.786.129q-.383-.001-.736-.113a1.567 1.5 0 0 1-.62-.368 2.09 2 0 0 1-.417-.671q-.15-.417-.15-1.008 0-.417.1-.785.119-.368.352-.64.235-.288.602-.448a1.923 1.84 0 0 1 .87-.176M20.476 20.632a5.225 5 0 0 0-1.923.336 4.598 4.4 0 0 0-1.538.945q-.652.608-1.02 1.455-.368.832-.368 1.856 0 1.136.352 1.953.367.8.987 1.328.635.512 1.488.752t1.855.24q.502-.001 1.02-.098a7.315 7 0 0 0 1.019-.255q.501-.177.92-.416a3.135 3 0 0 0 .686-.543q.3-.336.3-.721a1.358 1.3 0 0 0-.183-.719 1.63 1.56 0 0 0-.518-.56 1.16 1.11 0 0 0-1.456.047l-.433.353a3.135 3 0 0 1-.386.287 2.09 2 0 0 1-.418.192q-.218.064-.534.064-.569 0-.953-.16a1.985 1.9 0 0 1-.636-.447 1.881 1.8 0 0 1-.334-.657 3.135 3 0 0 1-.1-.783q0-1.073.585-1.697.585-.623 1.605-.623.385 0 .836.095.451.08 1.087.352.25.112.518.111a.805.77 0 0 0 .619-.238q.234-.24.283-.56a1.317 1.26 0 0 0-.082-.657.92.88 0 0 0-.486-.496 14.63 14 0 0 0-.602-.271 4.18 4 0 0 0-.634-.24 5.016 4.8 0 0 0-1.555-.225M7.185 30.257q-.502.015-.903.095a2.717 2.6 0 0 0-1.003.416 3.135 3 0 0 0-.719.641q-.05-.367-.402-.687-.335-.32-1.17-.32-.483-.002-.802.126a1.358 1.3 0 0 0-.485.29q-.167.175-.233.382a1.463 1.4 0 0 0-.068.4q0 .288.05.608t.118.672q.066.352.115.736.052.368.052.736v.688q0 .367-.052.736-.049.369-.115.72-.068.354-.119.673a4.18 4 0 0 0-.049.607q0 .193.068.4.066.21.233.401.184.175.485.287.317.113.802.113t.786-.113.486-.287a1.003.96 0 0 0 .25-.37q.067-.206.066-.398a6.06 5.8 0 0 0-.168-1.345 6.583 6.3 0 0 1-.167-1.424v-.928q0-.112.02-.24.031-.4.299-.688.25-.271.486-.4.25-.144.467-.191.216-.047.402-.032.201 0 .351.032.769.16.77 2.351v.096q0 .367-.052.736-.05.369-.116.72a22.99 22 0 0 0-.118.673 4.18 4 0 0 0-.049.607q0 .193.05.4a1.045 1 0 0 0 .218.401q.167.175.45.287.301.113.786.113t.769-.113a1.045 1 0 0 0 .451-.287.899.86 0 0 0 .217-.37 1.463 1.4 0 0 0 .068-.398 6.06 5.8 0 0 0-.168-1.345 6.583 6.3 0 0 1-.167-1.424v-.096q0-.319.034-.623l.1-.625q.033-.192.116-.367a.836.8 0 0 1 .22-.305q.467-.416.868-.447a1.985 1.9 0 0 1 .686.016q.768.16.767 2.351v.096q0 .367-.049.736t-.116.72q-.068.354-.118.673a4.18 4 0 0 0-.049.607q0 .192.065.4.068.21.235.401.184.175.486.287.317.113.801.113.486 0 .786-.113.301-.112.484-.287a1.003.96 0 0 0 .25-.37 1.463 1.4 0 0 0 .069-.398 6.06 5.8 0 0 0-.167-1.345 6.583 6.3 0 0 1-.168-1.424v-.096q0-.752.168-1.424.167-.687.167-1.343 0-.72-.384-1.12a2.247 2.15 0 0 0-.953-.609 3.448 3.3 0 0 0-1.172-.191q-.617 0-1.086.095a2.717 2.6 0 0 0-1.069.45 3.657 3.5 0 0 0-.737.718 1.526 1.46 0 0 0-.567-.752 2.247 2.15 0 0 0-.87-.4 3.135 3 0 0 0-.987-.111m29.561-6.467q-.519 0-.837.127a1.358 1.3 0 0 0-.483.336 1.15 1.1 0 0 0-.236.434q-.05.223-.05.447 0 .56.051 1.088t.115 1.056q.068.513.12 1.024.049.495.049 1.008v1.279q0 .512-.05 1.008-.05.48-.118.976-.066.497-.117 1.041-.05.528-.05 1.15 0 .225.051.466.066.224.235.431.182.192.483.32.318.13.836.13.502-.002.82-.114.317-.128.486-.32a.94.9 0 0 0 .232-.416q.067-.24.067-.463 0-.624-.049-1.168-.05-.544-.118-1.041a41.8 40 0 0 1-.117-.992q-.05-.496-.051-1.008v-1.28q0-.511.052-.992.05-.495.115-.992.068-.511.12-1.054.048-.544.048-1.168 0-.225-.067-.45a.94.9 0 0 0-.232-.431 1.15 1.1 0 0 0-.486-.305q-.318-.127-.819-.127M26.48 10.895q-.501 0-.82.127a1.118 1.07 0 0 0-.484.305 1.15 1.1 0 0 0-.234.431q-.05.225-.049.45 0 .624.05 1.168.048.544.115 1.054.068.496.118.992.05.48.05.993v1.279q0 .511-.05 1.008-.05.48-.118.992-.067.496-.116 1.04-.05.546-.049 1.169 0 .224.05.463.066.225.233.416.168.192.484.32.319.113.82.113.787-.016 1.122-.273.333-.271.416-.623.518.464 1.203.767.704.289 1.572.29.436 0 1.072-.16a3.187 3.05 0 0 0 1.22-.626q.603-.463 1.019-1.295.418-.832.418-2.193 0-1.263-.316-2.127-.302-.88-.82-1.424a3.03 2.9 0 0 0-1.188-.785 3.762 3.6 0 0 0-1.405-.256q-.868 0-1.555.225-.685.208-1.22.576-.251.16-.217-.096l.168-1.441q.1-.72.1-1.535 0-.224-.068-.447a1.003.96 0 0 0-.216-.434 1.15 1.1 0 0 0-.485-.336q-.301-.127-.82-.127m3.462 5.744q.903-.001 1.405.559.517.56.518 1.762 0 .415-.083.783a1.776 1.7 0 0 1-.303.656q-.217.271-.602.447-.366.16-.935.16-1.02 0-1.622-.496-.602-.511-.635-1.55-.016-.529.184-.961.217-.432.551-.737.334-.303.737-.463t.785-.16"
    style="fill:#0073aa"/>
  <path
    d="M7.185 39.808q-.502.017-.903.096a2.717 2.6 0 0 0-1.003.416 3.135 3 0 0 0-.719.64q-.05-.367-.402-.687-.335-.32-1.17-.32-.483-.001-.802.127a1.358 1.3 0 0 0-.485.289q-.167.175-.233.383a1.463 1.4 0 0 0-.068.4q0 .288.05.607.05.321.118.672.066.352.115.737.052.367.052.736v.688q0 .367-.052.736-.049.368-.115.72-.068.353-.119.672a4.18 4 0 0 0-.049.608q0 .192.068.4.066.209.233.4.184.176.485.288.317.112.802.113.486-.001.786-.113t.486-.287a1.003.96 0 0 0 .25-.37q.067-.207.066-.398a6.06 5.8 0 0 0-.168-1.346 6.583 6.3 0 0 1-.167-1.423v-.928q0-.113.02-.24.031-.4.299-.688.25-.272.486-.4.25-.144.467-.192.216-.048.402-.031.201 0 .351.031.769.16.77 2.352v.096q0 .367-.052.736-.05.368-.116.72a22.99 22 0 0 0-.118.672 4.18 4 0 0 0-.049.608q0 .192.05.4a1.045 1 0 0 0 .218.4q.167.176.45.288.301.112.786.113.486-.001.769-.113a1.045 1 0 0 0 .451-.287.899.86 0 0 0 .217-.37 1.463 1.4 0 0 0 .068-.398 6.06 5.8 0 0 0-.168-1.346 6.583 6.3 0 0 1-.167-1.423v-.096q0-.32.034-.623l.1-.625q.033-.192.116-.367a.836.8 0 0 1 .22-.305q.467-.416.868-.447a1.985 1.9 0 0 1 .686.015q.768.16.767 2.352v.096q0 .367-.049.736-.049.368-.116.72-.068.353-.118.672a4.18 4 0 0 0-.049.608q0 .193.065.4.068.209.235.4.184.176.486.288.317.112.801.113.486-.001.786-.113t.484-.287a1.003.96 0 0 0 .25-.37 1.463 1.4 0 0 0 .069-.398 6.06 5.8 0 0 0-.167-1.346 6.583 6.3 0 0 1-.168-1.423v-.096q0-.752.168-1.424.167-.688.167-1.344 0-.72-.384-1.119a2.247 2.15 0 0 0-.953-.61 3.448 3.3 0 0 0-1.172-.19q-.617 0-1.086.095a2.717 2.6 0 0 0-1.069.45 3.657 3.5 0 0 0-.737.718 1.526 1.46 0 0 0-.567-.752 2.247 2.15 0 0 0-.87-.4 3.135 3 0 0 0-.987-.112m35.513 2.424q-.251 0-.62.064-.367.047-.785.207-.418.144-.836.432-.401.272-.736.736a4.18 4 0 0 0-.55 1.104q-.2.656-.202 1.568 0 1.313.334 2.225.335.911.87 1.47.534.56 1.188.817.668.24 1.337.24.953 0 1.687-.225.736-.24 1.289-.607a5.225 5 0 0 1-.133.785q-.1.4-.334.703a1.567 1.5 0 0 1-.587.512q-.35.191-.903.191a6.688 6.4 0 0 1-1.12-.095q-.568-.08-1.355-.448-.4-.175-.718-.175-.369 0-.669.175-.284.176-.436.448a1.212 1.16 0 0 0-.132.609q.016.335.25.639.485.64 1.454 1.04.97.4 2.225.401 1.27 0 2.122-.209.87-.208 1.423-.592.551-.368.834-.896a3.762 3.6 0 0 0 .418-1.12q.136-.608.152-1.296.017-.688.017-1.408v-1.6q0-.512.032-.992l.068-.992q.049-.512.084-1.055.033-.544.034-1.168 0-.225-.067-.465a1.15 1.1 0 0 0-.22-.465 1.15 1.1 0 0 0-.482-.336q-.319-.127-.821-.127-.736.016-1.07.272-.317.256-.434.592a3.762 3.6 0 0 0-1.137-.688q-.635-.271-1.471-.271m.852 2.367q.502 0 .903.176.418.16.701.449.285.288.436.656.167.367.183.768.018.528-.183.943a2.09 2 0 0 1-.535.672q-.318.272-.719.416a2.508 2.4 0 0 1-.786.129q-.383 0-.736-.114a1.567 1.5 0 0 1-.62-.367 2.09 2 0 0 1-.417-.672q-.15-.416-.15-1.007 0-.417.1-.786.119-.367.352-.638.235-.289.602-.45a1.923 1.84 0 0 1 .87-.175m-6.805-7.914q-.519 0-.837.127a1.358 1.3 0 0 0-.483.336 1.15 1.1 0 0 0-.236.434q-.05.224-.05.447 0 .56.051 1.088t.115 1.057q.068.51.12 1.023.049.495.049 1.008v1.28q0 .51-.05 1.007-.05.48-.118.976-.066.497-.117 1.041-.05.528-.05 1.15 0 .225.051.466.066.224.235.431.182.192.483.32.318.13.836.13.502-.002.82-.114.317-.128.486-.32a.94.9 0 0 0 .232-.416q.067-.24.067-.463 0-.624-.049-1.168-.05-.545-.118-1.04a41.8 40 0 0 1-.117-.993q-.05-.496-.051-1.008v-1.28q0-.51.052-.991.05-.497.115-.993.068-.511.12-1.054.048-.544.048-1.168 0-.225-.067-.45a.94.9 0 0 0-.232-.431 1.15 1.1 0 0 0-.486-.305q-.318-.127-.819-.127m-10.267 0q-.501 0-.82.127a1.118 1.07 0 0 0-.484.305 1.15 1.1 0 0 0-.234.432q-.05.224-.049.449 0 .624.05 1.168.048.544.115 1.054.068.497.118.993.05.48.05.992v1.28q0 .51-.05 1.007-.05.48-.118.992-.067.496-.116 1.041-.05.544-.049 1.168 0 .224.05.463.066.224.233.416.168.192.484.32.319.113.82.114.787-.017 1.122-.274.333-.271.416-.623.518.464 1.203.768.704.289 1.572.289.436 0 1.072-.16a3.187 3.05 0 0 0 1.22-.625q.603-.464 1.019-1.295.418-.833.418-2.194 0-1.262-.316-2.127-.302-.878-.82-1.424a3.03 2.9 0 0 0-1.188-.785 3.762 3.6 0 0 0-1.405-.256q-.868 0-1.555.225-.685.208-1.22.576-.251.16-.217-.095l.168-1.442q.1-.72.1-1.535 0-.224-.068-.447a1.003.96 0 0 0-.216-.434 1.15 1.1 0 0 0-.485-.336q-.301-.127-.82-.127m3.462 5.744q.903 0 1.405.559.517.56.518 1.762 0 .415-.083.783a1.776 1.7 0 0 1-.303.656q-.217.271-.602.447-.366.16-.935.16-1.02 0-1.622-.496-.602-.51-.635-1.55-.016-.528.184-.961.217-.432.551-.737.334-.303.737-.462t.785-.16m-9.464-2.766a5.225 5 0 0 0-1.923.336 4.598 4.4 0 0 0-1.538.945q-.652.608-1.02 1.455-.368.832-.368 1.856 0 1.136.352 1.953.367.8.987 1.328.635.512 1.488.752t1.855.24q.502-.001 1.02-.098a7.315 7 0 0 0 1.019-.255q.501-.177.92-.417a3.135 3 0 0 0 .686-.542q.3-.337.3-.721a1.358 1.3 0 0 0-.183-.719 1.63 1.56 0 0 0-.518-.56 1.16 1.11 0 0 0-1.456.046q-.234.193-.433.354a3.135 3 0 0 1-.386.287 2.09 2 0 0 1-.418.191q-.218.065-.534.065-.569 0-.953-.16a1.985 1.9 0 0 1-.636-.448 1.881 1.8 0 0 1-.334-.656 3.135 3 0 0 1-.1-.783q0-1.073.585-1.697.585-.623 1.605-.623.385 0 .836.095.451.08 1.087.352.25.112.518.111a.805.77 0 0 0 .619-.238q.234-.24.283-.56a1.317 1.26 0 0 0-.082-.657.92.88 0 0 0-.486-.496 14.63 14 0 0 0-.602-.271 4.18 4 0 0 0-.634-.24 5.016 4.8 0 0 0-1.555-.225"
    style="fill:#003653"/>
  <path d="M.02.02h49.959v49.959H.02z" style="fill:none;stroke:#003653;stroke-width:1.5"/>
</svg>