<svg xmlns="http://www.w3.org/2000/svg" width="48" height="48">
  <path
    d="M39.528 29.428q.752.368 1.296.448.56.096 1.072.096.528 0 .864-.192.352-.192.56-.512.224-.304.32-.704.096-.384.128-.784-.528.368-1.232.608-.704.224-1.616.224-.64 0-1.28-.24-.624-.256-1.136-.816t-.832-1.472-.32-2.224q0-.912.192-1.568.208-.656.528-1.104.32-.464.704-.736.4-.288.8-.432.4-.16.752-.208.352-.064.592-.064.8 0 1.408.272.624.256 1.088.688.112-.336.416-.592.32-.256 1.024-.272.48 0 .784.128t.464.336.208.464q.064.24.064.464 0 .624-.032 1.168t-.08 1.056l-.064.992q-.032.48-.032.992v1.6q0 .72-.016 1.408t-.144 1.296q-.112.608-.4 1.12-.272.528-.8.896-.528.384-1.36.592-.816.208-2.032.208-1.2 0-2.128-.4t-1.392-1.04q-.224-.304-.24-.64t.128-.608.416-.448q.288-.176.64-.176.304 0 .688.176m.368-5.264q0 .592.144 1.008.16.416.4.672.256.256.592.368t.704.112.752-.128q.384-.144.688-.416.32-.272.512-.672.192-.416.176-.944-.016-.4-.176-.768-.144-.368-.416-.656t-.672-.448q-.384-.176-.864-.176t-.832.176q-.352.16-.576.448-.224.272-.336.64-.096.368-.096.784M34.008 21.604q0-.512-.048-1.008-.048-.512-.112-1.024-.064-.528-.112-1.056t-.048-1.088q0-.224.048-.448.064-.24.224-.432.176-.208.464-.336.304-.128.8-.128.48 0 .784.128.304.112.464.304.176.192.224.432.064.224.064.448 0 .624-.048 1.168T36.6 19.62q-.064.496-.112.992-.048.48-.048.992v1.28q0 .512.048 1.008.048.48.112.992.064.496.112 1.04t.048 1.168q0 .224-.064.464-.048.224-.224.416-.16.192-.464.32-.304.112-.784.112-.496 0-.8-.128-.288-.128-.464-.32-.16-.208-.224-.432-.048-.24-.048-.464 0-.624.048-1.152.048-.544.112-1.04t.112-.976q.048-.496.048-1.008zM26.872 20.5q.512-.368 1.168-.576.656-.224 1.488-.224.704 0 1.344.256.64.24 1.136.784t.784 1.424q.304.864.304 2.128 0 1.36-.4 2.192t-.976 1.296q-.56.464-1.168.624t-1.024.16q-.832 0-1.504-.288-.656-.304-1.152-.768-.08.352-.4.624-.32.256-1.072.272-.48 0-.784-.112-.304-.128-.464-.32t-.224-.416q-.048-.24-.048-.464 0-.624.048-1.168t.112-1.04q.064-.512.112-.992.048-.496.048-1.008v-1.28q0-.512-.048-.992-.048-.496-.112-.992-.064-.512-.112-1.056t-.048-1.168q0-.224.048-.448.064-.24.224-.432t.464-.304q.304-.128.784-.128.496 0 .784.128.304.128.464.336.16.192.208.432.064.224.064.448 0 .816-.096 1.536l-.16 1.44q-.032.256.208.096m3.68 3.648q0-1.2-.496-1.76-.48-.56-1.344-.56-.368 0-.752.16t-.704.464-.528.736q-.192.432-.176.96.032 1.04.608 1.552.576.496 1.552.496.544 0 .896-.16.368-.176.576-.448.208-.288.288-.656t.08-.784M21.512 22.326q-.608-.272-1.04-.352-.432-.096-.8-.096-.976 0-1.536.624t-.56 1.696q0 .416.096.784t.32.656q.24.272.608.448.368.16.912.16.304 0 .512-.064.224-.08.4-.192.192-.128.368-.288.192-.16.416-.352.32-.272.72-.272.368 0 .672.224.32.224.496.56.192.336.176.72 0 .384-.288.72-.256.288-.656.544-.4.24-.88.416-.464.16-.976.256-.496.096-.976.096-.96 0-1.776-.24t-1.424-.752q-.592-.528-.944-1.328-.336-.816-.336-1.952 0-1.024.352-1.856.352-.848.976-1.456t1.472-.944 1.84-.336q.448 0 .816.064t.672.16q.32.096.608.24.288.128.576.272.336.16.464.496.128.32.08.656-.048.32-.272.56t-.592.24q-.256 0-.496-.112M4.136 23.3q-.016.128-.016.24v.928q0 .736.16 1.424.16.672.16 1.344 0 .192-.064.4-.064.192-.24.368t-.464.288-.752.112-.768-.112q-.288-.112-.464-.288-.16-.192-.224-.4t-.064-.4q0-.288.048-.608t.112-.672.112-.72.048-.736v-.688q0-.368-.048-.736-.048-.384-.112-.736t-.112-.672-.048-.608q0-.192.064-.4t.224-.384q.176-.176.464-.288.304-.128.768-.128.8 0 1.12.32.336.32.384.688.288-.368.688-.64.4-.288.96-.416.384-.08.864-.096.496-.016.944.112.464.112.832.4.384.272.544.752.288-.4.704-.72.432-.32 1.024-.448.448-.096 1.04-.096t1.12.192q.544.192.912.608.368.4.368 1.12 0 .656-.16 1.344-.16.672-.16 1.424v.096q0 .736.16 1.424.16.672.16 1.344 0 .192-.064.4-.064.192-.24.368t-.464.288-.752.112-.768-.112q-.288-.112-.464-.288-.16-.192-.224-.4t-.064-.4q0-.288.048-.608t.112-.672.112-.72.048-.736v-.096q0-2.192-.736-2.352-.272-.064-.656-.016-.384.032-.832.448-.128.112-.208.304-.08.176-.112.368-.048.304-.096.624-.032.304-.032.624v.096q0 .736.16 1.424.16.672.16 1.344 0 .192-.064.4-.048.192-.208.368-.144.176-.432.288-.272.112-.736.112t-.752-.112q-.272-.112-.432-.288-.16-.192-.208-.4t-.048-.4q0-.288.048-.608t.112-.672.112-.72.048-.736v-.096q0-2.192-.736-2.352-.144-.032-.336-.032-.176-.016-.384.032t-.448.192q-.224.128-.464.4-.256.288-.288.688"
    style="fill:#0073aa"/>
  <path
    d="M21.512 12.8q-.608-.271-1.04-.351-.432-.096-.8-.096-.976 0-1.536.624t-.56 1.696q0 .416.096.784t.32.656q.24.272.608.448.368.16.912.16.304 0 .512-.064.224-.08.4-.192.192-.128.368-.288.192-.16.416-.352.32-.272.72-.272.368 0 .672.224.32.224.496.56.192.336.176.72 0 .384-.288.72-.256.288-.656.544-.4.24-.88.416-.464.16-.976.256-.496.096-.976.096-.96 0-1.776-.24t-1.424-.752q-.592-.528-.944-1.328-.336-.816-.336-1.952 0-1.024.352-1.856.352-.848.976-1.456t1.472-.944 1.84-.336q.448 0 .816.064t.672.16q.32.096.608.24.288.128.576.272.336.16.464.496.128.32.08.656-.048.32-.272.56t-.592.24q-.256 0-.496-.112m0-9.525q-.608-.272-1.04-.352-.432-.096-.8-.096-.976 0-1.536.624t-.56 1.696q0 .416.096.784t.32.656q.24.272.608.448.368.16.912.16.304 0 .512-.064.224-.08.4-.192.192-.128.368-.288.192-.16.416-.352.32-.272.72-.272.368 0 .672.224.32.224.496.56.192.336.176.72 0 .384-.288.72-.256.288-.656.544-.4.24-.88.416-.464.16-.976.256-.496.096-.976.096-.96 0-1.776-.24t-1.424-.752q-.592-.528-.944-1.328-.336-.816-.336-1.952 0-1.024.352-1.856.352-.848.976-1.456t1.472-.944T19.656.7q.448 0 .816.064t.672.16q.32.096.608.24.288.128.576.272.336.16.464.496.128.32.08.656-.048.32-.272.56t-.592.24q-.256 0-.496-.112m0 28.574q-.608-.271-1.04-.351-.432-.096-.8-.096-.976 0-1.536.624t-.56 1.696q0 .416.096.784t.32.656q.24.272.608.448.368.16.912.16.304 0 .512-.064.224-.08.4-.192.192-.128.368-.288.192-.16.416-.352.32-.272.72-.272.368 0 .672.224.32.224.496.56.192.336.176.72 0 .384-.288.72-.256.288-.656.544-.4.24-.88.416-.464.16-.976.256-.496.096-.976.096-.96 0-1.776-.24t-1.424-.752q-.592-.528-.944-1.328-.336-.816-.336-1.952 0-1.024.352-1.856.352-.848.976-1.456t1.472-.944 1.84-.336q.448 0 .816.064t.672.16q.32.096.608.24.288.128.576.272.336.16.464.496.128.32.08.656-.048.32-.272.56t-.592.24q-.256 0-.496-.112m0 9.525q-.608-.272-1.04-.352-.432-.096-.8-.096-.976 0-1.536.624t-.56 1.696q0 .416.096.784t.32.656q.24.272.608.448.368.16.912.16.304 0 .512-.064.224-.08.4-.192.192-.128.368-.288.192-.16.416-.352.32-.272.72-.272.368 0 .672.224.32.224.496.56.192.336.176.72 0 .384-.288.72-.256.288-.656.544-.4.24-.88.416-.464.16-.976.256-.496.096-.976.096-.96 0-1.776-.24t-1.424-.752q-.592-.528-.944-1.328-.336-.816-.336-1.952 0-1.024.352-1.856.352-.848.976-1.456t1.472-.944 1.84-.336q.448 0 .816.064t.672.16q.32.096.608.24.288.128.576.272.336.16.464.496.128.32.08.656-.048.32-.272.56t-.592.24q-.256 0-.496-.112M26.772 33.328q.512-.368 1.168-.576.656-.224 1.488-.224.704 0 1.344.256.64.24 1.136.784t.784 1.424q.304.864.304 2.128 0 1.36-.4 2.192t-.976 1.296q-.56.464-1.168.624t-1.024.16q-.832 0-1.504-.288-.656-.304-1.152-.768-.08.352-.4.624-.32.256-1.072.272-.48 0-.784-.112-.304-.128-.464-.32t-.224-.416q-.048-.24-.048-.464 0-.624.048-1.168t.112-1.04q.064-.512.112-.992.048-.496.048-1.008v-1.28q0-.512-.048-.992-.048-.496-.112-.992-.064-.512-.112-1.056t-.048-1.168q0-.224.048-.448.064-.24.224-.432t.464-.304q.304-.128.784-.128.496 0 .784.128.304.128.464.336.16.192.208.432.064.224.064.448 0 .816-.096 1.536l-.16 1.44q-.032.256.208.096m3.68 3.648q0-1.2-.496-1.76-.48-.56-1.344-.56-.368 0-.752.16t-.704.464-.528.736q-.192.432-.176.96.032 1.04.608 1.552.576.496 1.552.496.544 0 .896-.16.368-.176.576-.448.208-.288.288-.656t.08-.784m-3.462 9.181q.511-.368 1.167-.576.656-.224 1.488-.224.704 0 1.344.256.64.24 1.136.784t.784 1.424q.304.864.304 2.128 0 1.36-.4 2.192t-.976 1.296q-.56.464-1.168.624t-1.024.16q-.832 0-1.504-.288-.656-.304-1.152-.768-.08.352-.4.624-.32.256-1.072.272-.48 0-.784-.112-.304-.128-.464-.32t-.224-.416q-.048-.24-.048-.464 0-.624.048-1.168t.112-1.04q.064-.512.112-.992.048-.496.048-1.008v-1.28q0-.512-.048-.992-.048-.496-.112-.992-.064-.512-.112-1.056t-.048-1.168q0-.224.048-.448.064-.24.224-.432t.464-.304q.304-.128.784-.128.496 0 .784.128.304.128.464.336.16.192.208.432.064.224.064.448 0 .816-.096 1.536l-.16 1.44q-.032.256.208.096m3.68 3.648q0-1.2-.497-1.76-.48-.56-1.344-.56-.368 0-.752.16t-.704.464-.528.736q-.192.432-.176.96.032 1.04.608 1.552.576.496 1.552.496.544 0 .896-.16.368-.176.576-.448.208-.288.288-.656t.08-.784M26.835 7.671q.512-.368 1.168-.576.656-.224 1.488-.224.704 0 1.344.256.64.24 1.136.784t.784 1.424q.304.864.304 2.128 0 1.36-.4 2.192t-.976 1.296q-.56.464-1.168.624t-1.024.16q-.832 0-1.504-.288-.656-.304-1.152-.768-.08.352-.4.624-.32.256-1.072.272-.48 0-.784-.112-.304-.128-.464-.32t-.224-.416q-.048-.24-.048-.464 0-.624.048-1.168t.112-1.04q.064-.512.112-.992.048-.496.048-1.008v-1.28q0-.512-.048-.992-.048-.496-.112-.992-.064-.512-.112-1.056t-.048-1.168q0-.224.048-.448.064-.24.224-.432t.464-.304q.304-.128.784-.128.496 0 .784.128.304.128.464.336.16.192.208.432.064.224.064.448 0 .816-.096 1.536l-.16 1.44q-.032.256.208.096m3.68 3.648q0-1.2-.496-1.76Q29.54 9 28.675 9q-.368 0-.752.16t-.704.464-.528.736q-.192.432-.176.96.032 1.04.608 1.552.576.496 1.552.496.544 0 .896-.16.368-.176.576-.448.208-.288.288-.656t.08-.784M26.981-5.157q.512-.368 1.168-.576.656-.224 1.488-.224.704 0 1.344.256.64.24 1.136.784t.784 1.424q.304.864.304 2.128 0 1.36-.4 2.192t-.976 1.296q-.56.464-1.168.624t-1.024.16q-.832 0-1.504-.288-.656-.304-1.152-.768-.08.352-.4.624-.32.256-1.072.272-.48 0-.784-.112-.304-.128-.464-.32t-.224-.416q-.048-.24-.048-.464 0-.624.048-1.168t.112-1.04q.064-.512.112-.992.048-.496.048-1.008v-1.28q0-.512-.048-.992-.048-.496-.112-.992-.064-.512-.112-1.056t-.048-1.168q0-.224.048-.448.064-.24.224-.432t.464-.304q.304-.128.784-.128.496 0 .784.128.304.128.464.336.16.192.208.432.064.224.064.448 0 .816-.096 1.536l-.16 1.44q-.032.256.208.096m3.68 3.648q0-1.2-.496-1.76-.48-.56-1.344-.56-.368 0-.752.16t-.704.464-.528.736q-.192.432-.176.96.032 1.04.608 1.552.576.496 1.552.496.544 0 .896-.16.368-.176.576-.448.208-.288.288-.656t.08-.784M34.008 8.562q0-.512-.048-1.008-.048-.512-.112-1.024-.064-.528-.112-1.056t-.048-1.088q0-.224.048-.448.064-.24.224-.432.176-.208.464-.336.304-.128.8-.128.48 0 .784.128.304.112.464.304.176.192.224.432.064.224.064.448 0 .624-.048 1.168T36.6 6.578q-.064.496-.112.992-.048.48-.048.992v1.28q0 .512.048 1.008.048.48.112.992.064.496.112 1.04t.048 1.168q0 .224-.064.464-.048.224-.224.416-.16.192-.464.32-.304.112-.784.112-.496 0-.8-.128-.288-.128-.464-.32-.16-.208-.224-.432-.048-.24-.048-.464 0-.624.048-1.152.048-.544.112-1.04t.112-.976q.048-.496.048-1.008zm0-13.042q0-.512-.048-1.008-.048-.512-.112-1.024-.064-.528-.112-1.056t-.048-1.088q0-.224.048-.448.064-.24.224-.432.176-.208.464-.336.304-.128.8-.128.48 0 .784.128.304.112.464.304.176.192.224.432.064.224.064.448 0 .624-.048 1.168T36.6-6.464q-.064.496-.112.992-.048.48-.048.992v1.28q0 .512.048 1.008.048.48.112.992.064.496.112 1.04t.048 1.168q0 .224-.064.464-.048.224-.224.416-.16.192-.464.32-.304.112-.784.112-.496 0-.8-.128-.288-.128-.464-.32-.16-.208-.224-.432-.048-.24-.048-.464 0-.624.048-1.152.048-.544.112-1.04t.112-.976q.048-.496.048-1.008zm0 39.126q0-.512-.048-1.008-.048-.512-.112-1.024-.064-.528-.112-1.056t-.048-1.088q0-.224.048-.448.064-.24.224-.432.176-.208.464-.336.304-.128.8-.128.48 0 .784.128.304.112.464.304.176.192.224.432.064.224.064.448 0 .624-.048 1.168t-.112 1.056q-.064.496-.112.992-.048.48-.048.992v1.28q0 .512.048 1.008.048.48.112.992.064.496.112 1.04t.048 1.168q0 .224-.064.464-.048.224-.224.416-.16.192-.464.32-.304.112-.784.112-.496 0-.8-.128-.288-.128-.464-.32-.16-.208-.224-.432-.048-.24-.048-.464 0-.624.048-1.152.048-.544.112-1.04t.112-.976q.048-.496.048-1.008zm0 13.042q0-.512-.048-1.008-.048-.512-.112-1.024-.064-.528-.112-1.056t-.048-1.088q0-.224.048-.448.064-.24.224-.432.176-.208.464-.336.304-.128.8-.128.48 0 .784.128.304.112.464.304.176.192.224.432.064.224.064.448 0 .624-.048 1.168t-.112 1.056q-.064.496-.112.992-.048.48-.048.992v1.28q0 .512.048 1.008.048.48.112.992.064.496.112 1.04t.048 1.168q0 .224-.064.464-.048.224-.224.416-.16.192-.464.32-.304.112-.784.112-.496 0-.8-.128-.288-.128-.464-.32-.16-.208-.224-.432-.048-.24-.048-.464 0-.624.048-1.152.048-.544.112-1.04t.112-.976q.048-.496.048-1.008zM39.528 42.945q.752.368 1.296.448.56.096 1.072.096.528 0 .864-.192.352-.192.56-.512.224-.304.32-.704.096-.384.128-.784-.528.368-1.232.608-.704.224-1.616.224-.64 0-1.28-.24-.624-.256-1.136-.816t-.832-1.472-.32-2.224q0-.912.192-1.568.208-.656.528-1.104.32-.464.704-.736.4-.288.8-.432.4-.16.752-.208.352-.064.592-.064.8 0 1.408.272.624.256 1.088.688.112-.336.416-.592.32-.256 1.024-.272.48 0 .784.128t.464.336.208.464q.064.24.064.464 0 .624-.032 1.168t-.08 1.056l-.064.992q-.032.48-.032.992v1.6q0 .72-.016 1.408t-.144 1.296q-.112.608-.4 1.12-.272.528-.8.896-.528.384-1.36.592-.816.208-2.032.208-1.2 0-2.128-.4t-1.392-1.04q-.224-.304-.24-.64t.128-.608.416-.448q.288-.176.64-.176.304 0 .688.176m.368-5.264q0 .592.144 1.008.16.416.4.672.256.256.592.368t.704.112.752-.128q.384-.144.688-.416.32-.272.512-.672.192-.416.176-.944-.016-.4-.176-.768-.144-.368-.416-.656t-.672-.448q-.384-.176-.864-.176t-.832.176q-.352.16-.576.448-.224.272-.336.64-.096.368-.096.784m-.368 18.781q.752.368 1.296.448.56.096 1.072.096.528 0 .864-.192.352-.192.56-.512.224-.304.32-.704.096-.384.128-.784-.528.368-1.232.608-.704.224-1.616.224-.64 0-1.28-.24-.624-.256-1.136-.816t-.832-1.472-.32-2.224q0-.912.192-1.568.208-.656.528-1.104.32-.464.704-.736.4-.288.8-.432.4-.16.752-.208.352-.064.592-.064.8 0 1.408.272.624.256 1.088.688.112-.336.416-.592.32-.256 1.024-.272.48 0 .784.128t.464.336.208.464q.064.24.064.464 0 .624-.032 1.168t-.08 1.056l-.064.992q-.032.48-.032.992v1.6q0 .72-.016 1.408t-.144 1.296q-.112.608-.4 1.12-.272.528-.8.896-.528.384-1.36.592-.816.208-2.032.208-1.2 0-2.128-.4t-1.392-1.04q-.224-.304-.24-.64t.128-.608.416-.448q.288-.176.64-.176.304 0 .688.176m.368-5.264q0 .592.144 1.008.16.416.4.672.256.256.592.368t.704.112.752-.128q.384-.144.688-.416.32-.272.512-.672.192-.416.176-.944-.016-.4-.176-.768-.144-.368-.416-.656t-.672-.448q-.384-.176-.864-.176t-.832.176q-.352.16-.576.448-.224.272-.336.64-.096.368-.096.784m-.368-35.288q.752.369 1.296.449.56.096 1.072.096.528 0 .864-.192.352-.192.56-.512.224-.304.32-.704.096-.384.128-.784-.528.368-1.232.608-.704.224-1.616.224-.64 0-1.28-.24-.624-.256-1.136-.816t-.832-1.472-.32-2.224q0-.912.192-1.568.208-.656.528-1.104.32-.464.704-.736.4-.288.8-.432.4-.16.752-.208.352-.064.592-.064.8 0 1.408.272.624.256 1.088.688.112-.336.416-.592.32-.256 1.024-.272.48 0 .784.128t.464.336.208.464q.064.24.064.464 0 .624-.032 1.168t-.08 1.056l-.064.992q-.032.48-.032.992v1.6q0 .72-.016 1.408t-.144 1.296q-.112.608-.4 1.12-.272.528-.8.896-.528.384-1.36.592-.816.208-2.032.208-1.2 0-2.128-.4t-1.392-1.04q-.224-.304-.24-.64t.128-.608.416-.448q.288-.176.64-.176.304 0 .688.176m.368-5.263q0 .592.144 1.008.16.416.4.672.256.256.592.368t.704.112.752-.128q.384-.144.688-.416.32-.272.512-.672.192-.416.176-.944-.016-.4-.176-.768-.144-.368-.416-.656t-.672-.448q-.384-.176-.864-.176t-.832.176q-.352.16-.576.448-.224.272-.336.64-.096.368-.096.784m-.368-8.254q.752.368 1.296.448.56.096 1.072.096.528 0 .864-.192.352-.192.56-.512.224-.304.32-.704.096-.384.128-.784-.528.368-1.232.608-.704.224-1.616.224-.64 0-1.28-.24-.624-.256-1.136-.816T37.672-.95t-.32-2.224q0-.912.192-1.568.208-.656.528-1.104.32-.464.704-.736.4-.288.8-.432.4-.16.752-.208.352-.064.592-.064.8 0 1.408.272.624.256 1.088.688.112-.336.416-.592.32-.256 1.024-.272.48 0 .784.128t.464.336.208.464q.064.24.064.464 0 .624-.032 1.168t-.08 1.056l-.064.992q-.032.48-.032.992v1.6q0 .72-.016 1.408t-.144 1.296q-.112.608-.4 1.12-.272.528-.8.896-.528.384-1.36.592-.816.208-2.032.208-1.2 0-2.128-.4t-1.392-1.04q-.224-.304-.24-.64t.128-.608.416-.448q.288-.176.64-.176.304 0 .688.176m.368-5.264q0 .592.144 1.008.16.416.4.672.256.256.592.368t.704.112.752-.128q.384-.144.688-.416.32-.272.512-.672.192-.416.176-.944-.016-.4-.176-.768-.144-.368-.416-.656t-.672-.448q-.384-.176-.864-.176t-.832.176q-.352.16-.576.448-.224.272-.336.64-.096.368-.096.784M4.136 32.8q-.016.128-.016.24v.928q0 .736.16 1.424.16.672.16 1.344 0 .192-.064.4-.064.192-.24.368t-.464.288-.752.112-.768-.112q-.288-.112-.464-.288-.16-.192-.224-.4t-.064-.4q0-.288.048-.608t.112-.672.112-.72.048-.736v-.688q0-.368-.048-.736-.048-.384-.112-.736t-.112-.672-.048-.608q0-.192.064-.4t.224-.384q.176-.176.464-.288.304-.128.768-.128.8 0 1.12.32.336.32.384.688.288-.368.688-.64.4-.288.96-.416.384-.08.864-.096.496-.016.944.112.464.112.832.4.384.272.544.752.288-.4.704-.72.432-.32 1.024-.448.448-.096 1.04-.096t1.12.192q.544.192.912.608.368.4.368 1.12 0 .656-.16 1.344-.16.672-.16 1.424v.096q0 .736.16 1.424.16.672.16 1.344 0 .192-.064.4-.064.192-.24.368t-.464.288-.752.112-.768-.112q-.288-.112-.464-.288-.16-.192-.224-.4t-.064-.4q0-.288.048-.608t.112-.672.112-.72.048-.736v-.096q0-2.192-.736-2.352-.272-.064-.656-.016-.384.032-.832.448-.128.112-.208.304-.08.176-.112.368-.048.304-.096.624-.032.304-.032.624v.096q0 .736.16 1.424.16.672.16 1.344 0 .192-.064.4-.048.192-.208.368-.144.176-.432.288-.272.112-.736.112t-.752-.112q-.272-.112-.432-.288-.16-.192-.208-.4t-.048-.4q0-.288.048-.608t.112-.672.112-.72.048-.736v-.096q0-2.192-.736-2.352-.144-.032-.336-.032-.176-.016-.384.032t-.448.192q-.224.128-.464.4-.256.288-.288.688m0-19q-.016.128-.016.24v.928q0 .736.16 1.424.16.672.16 1.344 0 .192-.064.4-.064.192-.24.368t-.464.288-.752.112-.768-.112q-.288-.112-.464-.288-.16-.192-.224-.4t-.064-.4q0-.288.048-.608t.112-.672.112-.72.048-.736v-.688q0-.368-.048-.736-.048-.384-.112-.736t-.112-.672-.048-.608q0-.192.064-.4t.224-.384q.176-.176.464-.288.304-.128.768-.128.8 0 1.12.32.336.32.384.688.288-.368.688-.64.4-.288.96-.416.384-.08.864-.096.496-.016.944.112.464.112.832.4.384.272.544.752.288-.4.704-.72.432-.32 1.024-.448.448-.096 1.04-.096t1.12.192q.544.192.912.608.368.4.368 1.12 0 .656-.16 1.344-.16.672-.16 1.424v.096q0 .736.16 1.424.16.672.16 1.344 0 .192-.064.4-.064.192-.24.368t-.464.288-.752.112-.768-.112q-.288-.112-.464-.288-.16-.192-.224-.4t-.064-.4q0-.288.048-.608t.112-.672.112-.72.048-.736v-.096q0-2.192-.736-2.352-.272-.064-.656-.016-.384.032-.832.448-.128.112-.208.304-.08.176-.112.368-.048.304-.096.624-.032.304-.032.624v.096q0 .736.16 1.424.16.672.16 1.344 0 .192-.064.4-.048.192-.208.368-.144.176-.432.288-.272.112-.736.112t-.752-.112q-.272-.112-.432-.288-.16-.192-.208-.4t-.048-.4q0-.288.048-.608t.112-.672.112-.72.048-.736v-.096q0-2.192-.736-2.352-.144-.032-.336-.032-.176-.016-.384.032t-.448.192q-.224.128-.464.4-.256.288-.288.688m0-9.5q-.016.128-.016.24v.928q0 .736.16 1.424.16.672.16 1.344 0 .192-.064.4-.064.192-.24.368t-.464.288-.752.112-.768-.112q-.288-.112-.464-.288-.16-.192-.224-.4t-.064-.4q0-.288.048-.608t.112-.672.112-.72.048-.736V4.78q0-.368-.048-.736-.048-.384-.112-.736t-.112-.672-.048-.608q0-.192.064-.4t.224-.384q.176-.176.464-.288.304-.128.768-.128.8 0 1.12.32.336.32.384.688.288-.368.688-.64.4-.288.96-.416.384-.08.864-.096.496-.016.944.112.464.112.832.4.384.272.544.752.288-.4.704-.72.432-.32 1.024-.448.448-.096 1.04-.096t1.12.192q.544.192.912.608.368.4.368 1.12 0 .656-.16 1.344-.16.672-.16 1.424v.096q0 .736.16 1.424.16.672.16 1.344 0 .192-.064.4-.064.192-.24.368t-.464.288-.752.112-.768-.112q-.288-.112-.464-.288-.16-.192-.224-.4t-.064-.4q0-.288.048-.608t.112-.672.112-.72.048-.736v-.096q0-2.192-.736-2.352-.272-.064-.656-.016-.384.032-.832.448-.128.112-.208.304-.08.176-.112.368-.048.304-.096.624-.032.304-.032.624v.096q0 .736.16 1.424.16.672.16 1.344 0 .192-.064.4-.048.192-.208.368-.144.176-.432.288-.272.112-.736.112t-.752-.112q-.272-.112-.432-.288-.16-.192-.208-.4t-.048-.4q0-.288.048-.608t.112-.672.112-.72.048-.736v-.096q0-2.192-.736-2.352-.144-.032-.336-.032-.176-.016-.384.032t-.448.192q-.224.128-.464.4-.256.288-.288.688m0 38q-.016.128-.016.24v.928q0 .736.16 1.424.16.672.16 1.344 0 .192-.064.4-.064.192-.24.368t-.464.288-.752.112-.768-.112q-.288-.112-.464-.288-.16-.192-.224-.4t-.064-.4q0-.288.048-.608t.112-.672.112-.72.048-.736v-.688q0-.368-.048-.736-.048-.384-.112-.736t-.112-.672-.048-.608q0-.192.064-.4t.224-.384q.176-.176.464-.288.304-.128.768-.128.8 0 1.12.32.336.32.384.688.288-.368.688-.64.4-.288.96-.416.384-.08.864-.096.496-.016.944.112.464.112.832.4.384.272.544.752.288-.4.704-.72.432-.32 1.024-.448.448-.096 1.04-.096t1.12.192q.544.192.912.608.368.4.368 1.12 0 .656-.16 1.344-.16.672-.16 1.424v.096q0 .736.16 1.424.16.672.16 1.344 0 .192-.064.4-.064.192-.24.368t-.464.288-.752.112-.768-.112q-.288-.112-.464-.288-.16-.192-.224-.4t-.064-.4q0-.288.048-.608t.112-.672.112-.72.048-.736v-.096q0-2.192-.736-2.352-.272-.064-.656-.016-.384.032-.832.448-.128.112-.208.304-.08.176-.112.368-.048.304-.096.624-.032.304-.032.624v.096q0 .736.16 1.424.16.672.16 1.344 0 .192-.064.4-.048.192-.208.368-.144.176-.432.288-.272.112-.736.112t-.752-.112q-.272-.112-.432-.288-.16-.192-.208-.4t-.048-.4q0-.288.048-.608t.112-.672.112-.72.048-.736v-.096q0-2.192-.736-2.352-.144-.032-.336-.032-.176-.016-.384.032t-.448.192q-.224.128-.464.4-.256.288-.288.688"
    style="fill:#b0deff"/>
</svg>