<?xml version="1.0" encoding="UTF-8" standalone="no"?>
<!-- Created with Inkscape (http://www.inkscape.org/) -->

<svg
   width="144.49777mm"
   height="144.49777mm"
   viewBox="0 0 511.99998 511.99998"
   id="svg2"
   version="1.1"
   xmlns="http://www.w3.org/2000/svg"
   xmlns:svg="http://www.w3.org/2000/svg">
  <defs
     id="defs4" />
  <g
     id="layer1"
     transform="translate(-132.38983,-111.21144)">
    <rect
       style="opacity:1;fill:#ffbc21;fill-opacity:1;fill-rule:nonzero;stroke:none;stroke-width:5;stroke-linecap:round;stroke-linejoin:round;stroke-miterlimit:4;stroke-dasharray:none;stroke-dashoffset:0;stroke-opacity:1"
       id="rect4405"
       width="512"
       height="512"
       x="132.38983"
       y="111.21142" />
    <path
       style="opacity:1;fill:#212121;fill-opacity:1;fill-rule:nonzero;stroke:none;stroke-width:20;stroke-linecap:round;stroke-linejoin:round;stroke-miterlimit:4;stroke-dasharray:none;stroke-dashoffset:0;stroke-opacity:1"
       d="M 251,17 C 178.09841,17 122.34611,53.098205 119,149 115.65389,244.9018 133.95156,291.05032 29.685547,406 18.292788,418.56012 8.4367784,431.43661 0,444.45898 V 512 H 512 V 435.41992 C 504.96081,425.55534 497.0922,415.72848 488.31445,406 379.42587,285.31751 383.49237,245.19544 383,149 382.50763,52.804559 323.90159,17 251,17 Z"
       transform="translate(132.38983,111.21144)"
       id="path4407" />
    <path
       id="path4173"
       d="m 388,392.36133 a 191.61657,206.14059 0 0 0 -191.61657,206.14059 191.61657,206.14059 0 0 0 1.64488,24.89949 H 578.05384 A 191.61657,206.14059 0 0 0 579.61657,598.50192 191.61657,206.14059 0 0 0 388,392.36133 Z"
       style="opacity:1;fill:#ffffff;fill-opacity:1;fill-rule:nonzero;stroke:none;stroke-width:20.7441;stroke-linecap:round;stroke-linejoin:round;stroke-miterlimit:4;stroke-dasharray:none;stroke-dashoffset:0;stroke-opacity:1" />
    <g
       id="g4181"
       transform="matrix(0.77565562,0,0,1.0018915,76.95095,37.136692)">
      <circle
         style="opacity:1;fill:#ffffff;fill-opacity:1;fill-rule:nonzero;stroke:none;stroke-width:20;stroke-linecap:round;stroke-linejoin:round;stroke-miterlimit:4;stroke-dasharray:none;stroke-dashoffset:0;stroke-opacity:1"
         id="circle4165"
         cx="457.74704"
         cy="225.07869"
         r="53.133984" />
    </g>
    <g
       id="g4185"
       transform="matrix(0.79052589,0,0,1.0496112,-20.186737,26.502624)">
      <circle
         r="53.133984"
         cy="225.07869"
         cx="457.74704"
         id="circle4187"
         style="opacity:1;fill:#ffffff;fill-opacity:1;fill-rule:nonzero;stroke:none;stroke-width:20;stroke-linecap:round;stroke-linejoin:round;stroke-miterlimit:4;stroke-dasharray:none;stroke-dashoffset:0;stroke-opacity:1" />
    </g>
    <path
       style="opacity:1;fill:#212121;fill-opacity:1;fill-rule:nonzero;stroke:none;stroke-width:24;stroke-linecap:round;stroke-linejoin:round;stroke-miterlimit:4;stroke-dasharray:none;stroke-dashoffset:0;stroke-opacity:1"
       d="m 258.47656,192.76953 c -58.69798,0 -118.04701,6.24743 -140.15429,18.74219 -0.19143,11.49742 -0.66167,22.55762 -1.86524,33.52539 26.79051,41.07191 117.27368,98.25751 139.14063,97.37305 21.26508,-0.86011 102.60269,-53.91389 133.76367,-94.16993 -3.05366,-13.60926 -4.5999,-27.2333 -5.40039,-41.73437 -25.51535,-9.15363 -75.24366,-13.73633 -125.48438,-13.73633 z"
       id="path4403"
       transform="translate(132.38983,111.21144)" />
    <path
       id="path4150"
       d="m 278.44439,344.97935 c -8.62067,27.46644 89.30326,92.45989 109.46407,91.64443 20.16081,-0.81545 112.3245,-64.17799 109.46407,-91.64443 -2.86043,-27.46645 -210.30749,-27.46645 -218.92814,0 z"
       style="opacity:1;fill:#ffbc21;fill-opacity:1;fill-rule:nonzero;stroke:none;stroke-width:24;stroke-linecap:round;stroke-linejoin:round;stroke-miterlimit:4;stroke-dasharray:none;stroke-dashoffset:0;stroke-opacity:1" />
    <g
       transform="matrix(0.33216421,0,0,0.33216421,279.95784,196.36331)"
       id="g4324"
       style="fill:#000000;fill-opacity:1">
      <circle
         r="53.133984"
         cy="225.07869"
         cx="457.74704"
         id="circle4326"
         style="opacity:1;fill:#000000;fill-opacity:1;fill-rule:nonzero;stroke:none;stroke-width:20;stroke-linecap:round;stroke-linejoin:round;stroke-miterlimit:4;stroke-dasharray:none;stroke-dashoffset:0;stroke-opacity:1" />
    </g>
    <g
       transform="matrix(0.40941012,0,0,0.40941012,155.68209,179.08351)"
       id="g4328"
       style="fill:#000000;fill-opacity:1">
      <circle
         style="opacity:1;fill:#000000;fill-opacity:1;fill-rule:nonzero;stroke:none;stroke-width:20;stroke-linecap:round;stroke-linejoin:round;stroke-miterlimit:4;stroke-dasharray:none;stroke-dashoffset:0;stroke-opacity:1"
         id="circle4330"
         cx="457.74704"
         cy="225.07869"
         r="53.133984" />
    </g>
  </g>
</svg>
